<svg xmlns="http://www.w3.org/2000/svg" width="1440" height="358" viewBox="0 0 1440 358">
    <defs>
        <linearGradient id="a" x1="50.758%" x2="50.758%" y1="-.75%" y2="100.25%">
            <stop offset="0%" stop-color="#334DAD"/>
            <stop offset="47.525%" stop-color="#53A0FD"/>
            <stop offset="100%" stop-color="#B4EC51"/>
        </linearGradient>
    </defs>
    <g fill="url(#a)" fill-rule="evenodd" opacity=".2" transform="translate(0 -671)">
        <path d="M-53.088 1015.29c-6.322.554-11.917-4.134-12.47-10.452-.552-6.317 4.143-11.907 10.466-12.46 6.323-.553 11.917 4.137 12.47 10.453.552 6.318-4.143 11.907-10.466 12.46zm-.334-3.133c4.631-.405 8.058-4.484 7.653-9.111-.405-4.627-4.488-8.05-9.12-7.645-4.631.406-8.058 4.485-7.653 9.112.405 4.627 4.488 8.05 9.12 7.644zm24.76 26.323c-.233.5-.712.835-1.257.883l-18.871 1.651a1.537 1.537 0 0 1-1.392-.651 1.569 1.569 0 0 1-.145-1.542l7.964-17.655a1.54 1.54 0 0 1 1.266-.901 1.54 1.54 0 0 1 1.403.668l10.908 16.004c.31.456.358 1.043.125 1.543zm-17.755-.76l13.615-1.192-7.87-11.545-5.745 12.737zm32.294-47.946a1.525 1.525 0 0 1-1.387 1.65l-14.91 1.305a1.525 1.525 0 0 1-1.652-1.385l-1.303-14.895a1.525 1.525 0 0 1 1.386-1.651l14.91-1.305a1.525 1.525 0 0 1 1.653 1.385l1.303 14.896zm-16.146-12.128l1.038 11.861 11.872-1.039-1.038-11.86-11.872 1.038zm16.854 37a1.57 1.57 0 0 1-.874 2.77 1.569 1.569 0 0 1-1.149-.361l-6.306-5.287-5.293 6.303a1.57 1.57 0 0 1-1.068.555 1.57 1.57 0 0 1-1.343-2.576l5.293-6.302-6.307-5.287a1.573 1.573 0 0 1 2.022-2.408l6.309 5.287 5.293-6.302a1.573 1.573 0 0 1 2.41 2.02l-5.294 6.302 6.307 5.287zm72.063-37.238c6.323-.553 11.917 4.136 12.47 10.453.552 6.317-4.142 11.907-10.466 12.46-6.322.553-11.916-4.137-12.47-10.453-.552-6.318 4.143-11.907 10.466-12.46zm.214 3.144c-4.631.405-8.058 4.485-7.653 9.112.405 4.627 4.488 8.05 9.12 7.644 4.631-.405 8.057-4.485 7.653-9.112-.405-4.627-4.488-8.05-9.12-7.644zm19.814-30.222c.317.451.372 1.038.146 1.541l-7.964 17.655a1.54 1.54 0 0 1-1.266.902 1.54 1.54 0 0 1-1.403-.668l-10.908-16.004a1.569 1.569 0 0 1-.125-1.543c.234-.5.713-.836 1.258-.884l18.87-1.65c.546-.048 1.076.2 1.392.651zm-17.353 3.832l7.87 11.545 5.745-12.736-13.615 1.19zm40.129 41.61l1.303 14.895a1.525 1.525 0 0 1-1.387 1.65l-14.91 1.305a1.525 1.525 0 0 1-1.652-1.385l-1.304-14.895a1.525 1.525 0 0 1 1.387-1.651l14.91-1.305a1.525 1.525 0 0 1 1.653 1.385zm-13.795 14.746l11.872-1.038-1.038-11.861-11.872 1.038 1.038 11.861zm10.173-39.365l-5.293 6.302 6.307 5.287a1.573 1.573 0 0 1-2.022 2.408l-6.307-5.287-5.295 6.302a1.573 1.573 0 0 1-2.41-2.02l5.294-6.302-6.307-5.288a1.57 1.57 0 0 1 .875-2.77 1.57 1.57 0 0 1 1.148.362l6.307 5.287 5.292-6.3c.28-.333.667-.521 1.069-.556a1.57 1.57 0 0 1 1.343 2.576zm-114.968-38.811c-6.323.553-11.917-4.135-12.47-10.453-.553-6.317 4.142-11.906 10.465-12.46 6.323-.553 11.917 4.137 12.47 10.453.553 6.318-4.142 11.907-10.465 12.46zm-.215-3.144c4.632-.405 8.059-4.485 7.654-9.112-.405-4.627-4.488-8.05-9.12-7.644-4.631.405-8.058 4.485-7.653 9.112.405 4.627 4.488 8.05 9.12 7.644zm-19.813 30.222a1.567 1.567 0 0 1-.146-1.541l7.963-17.655a1.54 1.54 0 0 1 1.266-.902 1.54 1.54 0 0 1 1.404.669l10.908 16.003c.31.456.358 1.044.125 1.543-.234.5-.713.836-1.258.884l-18.871 1.65a1.536 1.536 0 0 1-1.391-.65zm17.353-3.832l-7.87-11.545-5.745 12.737 13.615-1.192zm-40.129-41.61l-1.303-14.895a1.525 1.525 0 0 1 1.387-1.65l14.91-1.305a1.525 1.525 0 0 1 1.652 1.385l1.303 14.895a1.525 1.525 0 0 1-1.386 1.651l-14.91 1.305a1.525 1.525 0 0 1-1.653-1.385zm13.795-14.746l-11.872 1.038 1.037 11.861 11.873-1.038-1.038-11.861zm-10.173 39.365l5.293-6.302-6.307-5.287a1.573 1.573 0 0 1 2.022-2.408l6.307 5.287 5.294-6.302a1.573 1.573 0 0 1 2.41 2.02l-5.293 6.302 6.307 5.288a1.57 1.57 0 0 1-.875 2.77 1.57 1.57 0 0 1-1.148-.362l-6.307-5.287-5.293 6.301c-.279.333-.667.52-1.068.555a1.57 1.57 0 0 1-1.343-2.576zM79.403 898.8c6.323-.553 11.917 4.135 12.47 10.453.552 6.317-4.143 11.906-10.465 12.46-6.323.553-11.918-4.137-12.47-10.453-.553-6.318 4.142-11.907 10.465-12.46zm.335 3.134c-4.632.405-8.059 4.484-7.654 9.111.405 4.627 4.488 8.05 9.12 7.645 4.631-.406 8.058-4.485 7.653-9.112-.405-4.627-4.488-8.05-9.12-7.644zM54.977 875.61c.233-.5.712-.835 1.257-.883l18.871-1.651c.545-.048 1.075.2 1.392.651.316.452.37 1.039.145 1.542l-7.964 17.655a1.54 1.54 0 0 1-1.265.901 1.54 1.54 0 0 1-1.404-.668l-10.908-16.004a1.567 1.567 0 0 1-.124-1.543zm17.755.76l-13.615 1.191 7.87 11.546 5.745-12.737zm-32.294 47.946a1.525 1.525 0 0 1 1.387-1.65l14.91-1.305a1.525 1.525 0 0 1 1.652 1.385l1.304 14.895a1.525 1.525 0 0 1-1.387 1.651l-14.91 1.305a1.525 1.525 0 0 1-1.652-1.385l-1.304-14.896zm16.146 12.128l-1.038-11.861-11.872 1.038 1.038 11.861 11.872-1.038zm-16.854-37a1.57 1.57 0 0 1 .875-2.77c.4-.035.815.082 1.148.361l6.306 5.287 5.293-6.303a1.57 1.57 0 0 1 1.069-.555 1.57 1.57 0 0 1 1.342 2.575l-5.293 6.303 6.307 5.287a1.573 1.573 0 0 1-2.022 2.408l-6.308-5.287-5.294 6.302a1.573 1.573 0 0 1-2.41-2.02l5.294-6.302-6.307-5.287zM-92.25 940.92c-.553-6.317 4.141-11.906 10.465-12.46 6.323-.553 11.917 4.137 12.47 10.453.552 6.317-4.143 11.907-10.465 12.46-6.324.553-11.918-4.136-12.47-10.453zm3.136-.335c.405 4.627 4.488 8.05 9.12 7.644 4.631-.405 8.057-4.484 7.653-9.111-.405-4.628-4.488-8.05-9.12-7.645-4.631.405-8.058 4.485-7.653 9.112zm-26.352 24.742a1.534 1.534 0 0 1-.884-1.256l-1.65-18.853c-.047-.544.201-1.074.653-1.39a1.573 1.573 0 0 1 1.543-.146l17.67 7.953c.51.23.855.713.903 1.265a1.538 1.538 0 0 1-.67 1.402l-16.02 10.9a1.57 1.57 0 0 1-1.545.125zm.764-17.739l1.19 13.602 11.558-7.864-12.748-5.738zm47.987 32.255a1.525 1.525 0 0 1-1.653-1.385l-1.303-14.896a1.525 1.525 0 0 1 1.387-1.65l14.91-1.305a1.525 1.525 0 0 1 1.652 1.384l1.303 14.896a1.525 1.525 0 0 1-1.386 1.651l-14.91 1.305zm12.142-16.133l-11.873 1.039 1.038 11.86 11.872-1.038-1.037-11.86zm-37.04 16.845a1.574 1.574 0 0 1-2.41-2.021l5.293-6.301-6.307-5.287a1.566 1.566 0 0 1-.556-1.067 1.574 1.574 0 0 1 2.578-1.342l6.308 5.287 5.293-6.302a1.574 1.574 0 0 1 2.217-.194 1.57 1.57 0 0 1 .193 2.214l-5.293 6.303 6.307 5.287a1.57 1.57 0 0 1 .194 2.214 1.574 1.574 0 0 1-2.216.194l-6.308-5.287-5.292 6.302zm224.463-10.643c.553 6.316-4.141 11.906-10.465 12.46-6.323.552-11.917-4.137-12.47-10.454-.552-6.317 4.143-11.906 10.465-12.46 6.324-.553 11.917 4.137 12.47 10.454zm-3.136.335c-.405-4.627-4.488-8.05-9.12-7.645-4.631.405-8.058 4.485-7.653 9.112.405 4.627 4.488 8.05 9.12 7.644 4.631-.405 8.057-4.484 7.653-9.111zm26.352-24.742c.5.233.836.711.884 1.256l1.649 18.853c.048.544-.2 1.074-.653 1.39-.451.316-1.039.37-1.542.145l-17.67-7.952a1.537 1.537 0 0 1-.903-1.265 1.538 1.538 0 0 1 .669-1.402l16.021-10.9a1.57 1.57 0 0 1 1.545-.125zm-.764 17.738l-1.19-13.601-11.558 7.864 12.748 5.737zm-47.987-32.254a1.525 1.525 0 0 1 1.652 1.385l1.304 14.896a1.525 1.525 0 0 1-1.387 1.65l-14.91 1.305a1.525 1.525 0 0 1-1.652-1.385l-1.304-14.896a1.525 1.525 0 0 1 1.387-1.65l14.91-1.305zm-12.142 16.132l11.873-1.038-1.038-11.861-11.873 1.039 1.038 11.86zm37.04-16.844a1.574 1.574 0 0 1 2.41 2.02l-5.293 6.302 6.307 5.287c.333.279.52.666.556 1.067a1.574 1.574 0 0 1-2.578 1.342l-6.308-5.287-5.294 6.302a1.574 1.574 0 0 1-2.216.193 1.57 1.57 0 0 1-.194-2.213l5.294-6.304-6.308-5.286a1.57 1.57 0 0 1-.193-2.214 1.574 1.574 0 0 1 2.216-.194l6.307 5.287 5.293-6.302zM5.108 893.756c-.553-6.316 4.14-11.906 10.465-12.46 6.322-.553 11.917 4.137 12.47 10.454.552 6.316-4.143 11.906-10.466 12.46-6.324.552-11.917-4.137-12.47-10.454zm3.146-.215c.405 4.628 4.488 8.05 9.12 7.645 4.631-.405 8.058-4.485 7.653-9.112-.405-4.627-4.488-8.05-9.12-7.644-4.63.405-8.057 4.484-7.653 9.111zm-30.247-19.79a1.57 1.57 0 0 1 1.542-.145l17.67 7.953c.51.23.855.713.903 1.265a1.537 1.537 0 0 1-.669 1.402l-16.021 10.9a1.573 1.573 0 0 1-1.545.125 1.535 1.535 0 0 1-.884-1.256l-1.649-18.853c-.048-.544.2-1.074.653-1.39zm3.832 17.337l11.558-7.864-12.748-5.738 1.19 13.602zm41.657-40.097l14.91-1.305a1.525 1.525 0 0 1 1.652 1.385l1.303 14.896a1.525 1.525 0 0 1-1.386 1.65l-14.91 1.305a1.525 1.525 0 0 1-1.653-1.384L22.11 852.64a1.525 1.525 0 0 1 1.387-1.65zm14.759 13.779l-1.038-11.861-11.873 1.039 1.038 11.86 11.873-1.038zm-39.402-10.157l6.307 5.287 5.293-6.302a1.574 1.574 0 0 1 2.217-.194 1.57 1.57 0 0 1 .193 2.214l-5.293 6.302 6.307 5.288a1.57 1.57 0 0 1 .194 2.214 1.574 1.574 0 0 1-2.216.194l-6.308-5.287-5.293 6.302a1.574 1.574 0 0 1-2.41-2.021l5.293-6.302-6.306-5.286a1.566 1.566 0 0 1-.556-1.068 1.574 1.574 0 0 1 2.578-1.342zm35.803 89.76c6.323-.553 11.917 4.136 12.47 10.453.552 6.317-4.143 11.907-10.465 12.46-6.323.553-11.918-4.136-12.47-10.453-.553-6.318 4.142-11.906 10.465-12.46zm.335 3.134c-4.632.405-8.058 4.484-7.653 9.111.404 4.628 4.487 8.05 9.119 7.645 4.631-.405 8.058-4.485 7.653-9.112-.405-4.627-4.488-8.05-9.12-7.644zM10.23 921.184c.233-.5.712-.835 1.257-.883l18.871-1.65c.545-.049 1.075.2 1.392.65.316.452.37 1.039.145 1.542l-7.963 17.655a1.54 1.54 0 0 1-1.266.902 1.54 1.54 0 0 1-1.404-.669l-10.908-16.003a1.567 1.567 0 0 1-.124-1.544zm17.755.76l-13.615 1.192 7.87 11.545 5.745-12.736zM-4.307 969.89a1.525 1.525 0 0 1 1.386-1.65l14.91-1.305a1.525 1.525 0 0 1 1.653 1.385l1.303 14.896a1.525 1.525 0 0 1-1.387 1.65l-14.91 1.305a1.525 1.525 0 0 1-1.652-1.385l-1.303-14.896zm16.145 12.128l-1.037-11.86-11.873 1.038 1.038 11.86 11.872-1.038zm-16.854-37a1.57 1.57 0 0 1 .875-2.77c.401-.035.815.082 1.148.361l6.306 5.287 5.293-6.302a1.57 1.57 0 0 1 1.069-.556 1.57 1.57 0 0 1 1.342 2.576l-5.293 6.302 6.307 5.288a1.573 1.573 0 0 1-2.022 2.408l-6.308-5.288-5.293 6.303a1.573 1.573 0 0 1-2.41-2.02l5.293-6.303-6.307-5.286zm213.374-19.355c6.323-.553 11.917 4.135 12.47 10.453.553 6.317-4.142 11.907-10.465 12.46-6.323.553-11.917-4.137-12.47-10.453-.553-6.318 4.142-11.907 10.465-12.46zm.335 3.134c-4.632.405-8.058 4.484-7.653 9.111.405 4.627 4.487 8.05 9.119 7.645 4.632-.406 8.058-4.485 7.653-9.112-.404-4.627-4.487-8.05-9.119-7.644zm-24.76-26.323c.232-.5.711-.835 1.256-.883l18.872-1.651c.544-.048 1.074.2 1.391.651.317.452.371 1.039.145 1.542l-7.963 17.655a1.54 1.54 0 0 1-1.266.901 1.54 1.54 0 0 1-1.403-.668l-10.909-16.004a1.567 1.567 0 0 1-.124-1.543zm17.754.76l-13.615 1.192 7.87 11.545 5.745-12.737zm-32.293 47.946a1.525 1.525 0 0 1 1.386-1.65l14.91-1.305a1.525 1.525 0 0 1 1.653 1.385l1.303 14.895a1.525 1.525 0 0 1-1.386 1.651l-14.911 1.305a1.525 1.525 0 0 1-1.652-1.385l-1.303-14.896zm16.146 12.128l-1.038-11.861-11.872 1.038 1.037 11.861 11.873-1.038zm-16.855-37a1.57 1.57 0 0 1 .875-2.77c.401-.035.816.082 1.149.361l6.305 5.287 5.294-6.303a1.57 1.57 0 0 1 1.068-.555 1.57 1.57 0 0 1 1.343 2.575l-5.294 6.303 6.308 5.287a1.573 1.573 0 0 1-2.022 2.408l-6.31-5.287-5.292 6.302a1.573 1.573 0 0 1-2.41-2.02l5.293-6.302-6.307-5.287zm147.948-20.658c6.323-.553 11.917 4.135 12.47 10.453.553 6.317-4.142 11.907-10.465 12.46-6.323.553-11.917-4.137-12.47-10.453-.553-6.318 4.143-11.907 10.465-12.46zm.335 3.134c-4.632.405-8.058 4.484-7.653 9.111.405 4.627 4.487 8.05 9.119 7.645 4.632-.406 8.058-4.485 7.653-9.112-.404-4.627-4.487-8.05-9.119-7.644zm-24.76-26.323c.232-.5.711-.835 1.256-.883l18.872-1.651c.544-.048 1.075.2 1.391.652.317.451.371 1.038.145 1.54l-7.963 17.656a1.54 1.54 0 0 1-1.266.901 1.54 1.54 0 0 1-1.403-.668l-10.909-16.004a1.567 1.567 0 0 1-.124-1.543zm17.754.76l-13.615 1.192 7.87 11.545 5.745-12.737zm-32.293 47.946a1.525 1.525 0 0 1 1.386-1.65l14.91-1.305a1.525 1.525 0 0 1 1.653 1.385l1.303 14.896a1.525 1.525 0 0 1-1.386 1.65l-14.911 1.305a1.525 1.525 0 0 1-1.652-1.385l-1.303-14.896zm16.146 12.128l-1.038-11.861-11.872 1.039 1.037 11.86 11.873-1.038zm-16.855-37a1.57 1.57 0 0 1 .875-2.77c.401-.035.816.082 1.149.361l6.305 5.287 5.294-6.303a1.57 1.57 0 0 1 1.068-.555 1.57 1.57 0 0 1 1.343 2.576l-5.293 6.302 6.307 5.287a1.573 1.573 0 0 1-2.022 2.408l-6.31-5.287-5.292 6.302a1.573 1.573 0 0 1-2.41-2.02l5.293-6.302-6.307-5.287zm-95.058-47.58c-6.322.552-11.917-4.136-12.47-10.454-.552-6.316 4.143-11.906 10.466-12.46 6.323-.552 11.917 4.137 12.47 10.454.552 6.317-4.143 11.906-10.466 12.46zm-.334-3.134c4.631-.405 8.058-4.485 7.653-9.112-.405-4.627-4.488-8.05-9.12-7.644-4.631.405-8.057 4.485-7.653 9.112.405 4.627 4.488 8.05 9.12 7.644zm24.76 26.322c-.233.5-.712.836-1.257.884l-18.87 1.65a1.537 1.537 0 0 1-1.392-.651 1.569 1.569 0 0 1-.146-1.541l7.964-17.655a1.54 1.54 0 0 1 1.266-.902 1.54 1.54 0 0 1 1.403.668l10.908 16.004c.31.456.358 1.044.125 1.543zm-17.755-.76l13.615-1.191-7.87-11.545-5.745 12.736zm32.294-47.946a1.525 1.525 0 0 1-1.386 1.651l-14.911 1.305a1.525 1.525 0 0 1-1.652-1.385l-1.303-14.896a1.525 1.525 0 0 1 1.386-1.65l14.91-1.305a1.525 1.525 0 0 1 1.653 1.385l1.303 14.895zM204.72 821.07l1.038 11.86 11.872-1.038-1.038-11.861-11.872 1.039zm16.855 37a1.57 1.57 0 0 1-.875 2.77 1.569 1.569 0 0 1-1.149-.362l-6.306-5.286-5.293 6.302a1.57 1.57 0 0 1-1.068.556 1.57 1.57 0 0 1-1.343-2.576l5.293-6.303-6.307-5.287a1.573 1.573 0 0 1 2.022-2.408l6.309 5.287 5.293-6.302a1.573 1.573 0 0 1 2.41 2.02l-5.294 6.303 6.308 5.286zm86.396-28.454c6.322-.553 11.916 4.135 12.47 10.453.552 6.316-4.143 11.906-10.466 12.46-6.323.553-11.917-4.137-12.47-10.454-.552-6.317 4.143-11.906 10.466-12.46zm.334 3.133c-4.631.405-8.058 4.485-7.653 9.112.405 4.627 4.488 8.05 9.12 7.644 4.63-.405 8.057-4.484 7.653-9.112-.405-4.627-4.488-8.049-9.12-7.644zm-24.76-26.322c.233-.5.712-.836 1.257-.883l18.87-1.651c.545-.048 1.076.2 1.392.651.317.452.371 1.038.145 1.541l-7.963 17.655a1.54 1.54 0 0 1-1.266.902 1.54 1.54 0 0 1-1.403-.668L283.67 807.97a1.567 1.567 0 0 1-.125-1.543zm17.755.76l-13.615 1.191 7.87 11.545 5.745-12.736zm-32.294 47.946a1.525 1.525 0 0 1 1.386-1.651l14.911-1.305a1.525 1.525 0 0 1 1.652 1.386l1.303 14.895a1.525 1.525 0 0 1-1.386 1.65l-14.91 1.305a1.525 1.525 0 0 1-1.653-1.385l-1.303-14.895zm16.146 12.127l-1.038-11.86-11.872 1.038 1.038 11.861 11.872-1.039zm-16.855-37a1.57 1.57 0 0 1 .875-2.77c.402-.035.816.083 1.149.362l6.306 5.286 5.293-6.302a1.57 1.57 0 0 1 1.068-.556 1.57 1.57 0 0 1 1.343 2.576l-5.293 6.303 6.307 5.287a1.573 1.573 0 0 1-2.022 2.408l-6.309-5.287-5.293 6.302a1.573 1.573 0 0 1-2.41-2.02l5.294-6.303-6.308-5.286zm-119.515 40.386c.553 6.317-4.141 11.906-10.465 12.46-6.323.553-11.917-4.137-12.47-10.453-.552-6.317 4.143-11.907 10.465-12.46 6.324-.553 11.917 4.136 12.47 10.453zm-3.147.215c-.405-4.627-4.487-8.05-9.12-7.645-4.63.406-8.057 4.485-7.652 9.112.405 4.627 4.487 8.05 9.119 7.645 4.631-.406 8.058-4.485 7.653-9.112zm30.248 19.79a1.57 1.57 0 0 1-1.543.145l-17.67-7.953a1.538 1.538 0 0 1-.903-1.264 1.537 1.537 0 0 1 .67-1.402l16.02-10.9a1.573 1.573 0 0 1 1.545-.125c.5.233.836.711.884 1.255l1.65 18.853c.047.545-.201 1.074-.653 1.39zm-3.832-17.337l-11.558 7.864 12.748 5.738-1.19-13.602zm-41.657 40.098l-14.91 1.304a1.525 1.525 0 0 1-1.652-1.385l-1.304-14.896a1.525 1.525 0 0 1 1.387-1.65l14.91-1.305a1.525 1.525 0 0 1 1.652 1.385l1.304 14.896a1.525 1.525 0 0 1-1.387 1.65zm-14.76-13.78l1.039 11.861 11.872-1.038-1.037-11.861-11.873 1.039zm39.402 10.158l-6.306-5.288-5.294 6.302a1.574 1.574 0 0 1-2.216.194 1.57 1.57 0 0 1-.194-2.214l5.294-6.301-6.308-5.289a1.57 1.57 0 0 1-.193-2.214 1.574 1.574 0 0 1 2.216-.193l6.307 5.287 5.294-6.302a1.574 1.574 0 0 1 2.41 2.02l-5.293 6.303 6.306 5.286c.333.279.52.666.556 1.067a1.574 1.574 0 0 1-2.578 1.342zm209.48-13.85c.552 6.317-4.142 11.906-10.466 12.46-6.322.553-11.917-4.137-12.47-10.453-.552-6.317 4.143-11.907 10.466-12.46 6.324-.553 11.917 4.136 12.47 10.453zm-3.137.335c-.405-4.627-4.487-8.05-9.119-7.644-4.632.405-8.058 4.484-7.653 9.111.405 4.628 4.487 8.05 9.119 7.645 4.632-.405 8.058-4.485 7.653-9.112zm26.352-24.742c.5.233.836.712.884 1.256l1.65 18.853c.047.544-.201 1.074-.653 1.39-.452.317-1.04.371-1.543.146l-17.67-7.953a1.537 1.537 0 0 1-.903-1.265 1.538 1.538 0 0 1 .67-1.402l16.02-10.9a1.57 1.57 0 0 1 1.545-.125zm-.764 17.739l-1.19-13.602-11.557 7.864 12.747 5.738zm-47.986-32.255a1.525 1.525 0 0 1 1.652 1.385l1.303 14.896a1.525 1.525 0 0 1-1.387 1.65l-14.91 1.305a1.525 1.525 0 0 1-1.652-1.384l-1.303-14.896a1.525 1.525 0 0 1 1.386-1.651l14.91-1.305zM326.84 873.15l11.872-1.039-1.037-11.86-11.873 1.038 1.038 11.86zm37.039-16.845a1.574 1.574 0 0 1 2.41 2.021l-5.293 6.301 6.308 5.287c.332.279.52.666.555 1.067a1.574 1.574 0 0 1-2.578 1.342l-6.308-5.287-5.293 6.302a1.574 1.574 0 0 1-2.216.194 1.57 1.57 0 0 1-.194-2.214l5.293-6.303-6.307-5.287a1.57 1.57 0 0 1-.194-2.214 1.574 1.574 0 0 1 2.217-.194l6.307 5.287 5.293-6.302zm-113.623-43.222c.553 6.317-4.141 11.906-10.465 12.46-6.323.553-11.917-4.137-12.47-10.453-.552-6.317 4.143-11.907 10.465-12.46 6.324-.553 11.917 4.137 12.47 10.453zm-3.136.335c-.405-4.627-4.488-8.05-9.12-7.644-4.631.405-8.058 4.485-7.653 9.112.405 4.627 4.488 8.05 9.12 7.644 4.631-.405 8.057-4.485 7.653-9.112zm26.352-24.741c.5.233.836.711.884 1.256l1.649 18.852c.048.544-.2 1.074-.653 1.39-.451.317-1.039.371-1.542.146l-17.67-7.953a1.537 1.537 0 0 1-.903-1.264 1.538 1.538 0 0 1 .669-1.403l16.021-10.9a1.57 1.57 0 0 1 1.545-.124zm-.764 17.738l-1.19-13.602-11.558 7.864 12.748 5.738zm-47.987-32.254a1.525 1.525 0 0 1 1.652 1.384l1.304 14.896a1.525 1.525 0 0 1-1.387 1.651l-14.91 1.305a1.525 1.525 0 0 1-1.652-1.385l-1.304-14.896a1.525 1.525 0 0 1 1.387-1.651l14.91-1.304zm-12.142 16.132l11.873-1.039-1.038-11.86-11.873 1.038 1.038 11.86zm37.04-16.845a1.574 1.574 0 0 1 2.41 2.021l-5.293 6.301 6.307 5.287c.333.28.52.667.556 1.067a1.574 1.574 0 0 1-2.578 1.342l-6.308-5.287-5.294 6.302a1.574 1.574 0 0 1-2.216.194 1.57 1.57 0 0 1-.194-2.214l5.294-6.303-6.308-5.287a1.57 1.57 0 0 1-.193-2.214 1.574 1.574 0 0 1 2.216-.194l6.307 5.287 5.293-6.302zm13.607 101.741c6.323-.553 11.917 4.135 12.47 10.453.552 6.317-4.143 11.906-10.466 12.46-6.323.553-11.917-4.137-12.47-10.453-.552-6.318 4.143-11.907 10.466-12.46zm.335 3.133c-4.632.406-8.059 4.485-7.654 9.112.405 4.627 4.488 8.05 9.12 7.644 4.631-.405 8.058-4.484 7.653-9.111-.405-4.627-4.488-8.05-9.12-7.645zM238.8 852c.233-.5.712-.835 1.257-.883l18.871-1.651c.545-.048 1.075.2 1.392.651.316.452.37 1.039.145 1.542l-7.964 17.654a1.54 1.54 0 0 1-1.266.902 1.54 1.54 0 0 1-1.403-.668l-10.908-16.004A1.567 1.567 0 0 1 238.8 852zm17.755.76l-13.615 1.191 7.87 11.546 5.745-12.737zm-32.294 47.946a1.525 1.525 0 0 1 1.387-1.65l14.91-1.305a1.525 1.525 0 0 1 1.652 1.385l1.303 14.895a1.525 1.525 0 0 1-1.386 1.651l-14.91 1.305a1.525 1.525 0 0 1-1.653-1.385l-1.303-14.896zm16.146 12.128l-1.038-11.861-11.872 1.038 1.038 11.861 11.872-1.038zm-16.854-37a1.57 1.57 0 0 1 .874-2.77c.402-.036.816.082 1.149.361l6.306 5.286 5.293-6.302a1.57 1.57 0 0 1 1.068-.555 1.57 1.57 0 0 1 1.343 2.575l-5.293 6.303 6.307 5.287a1.573 1.573 0 0 1-2.022 2.408l-6.309-5.287-5.293 6.302a1.573 1.573 0 0 1-2.41-2.02l5.294-6.302-6.307-5.287zM805.119 1004.452c-6.323.553-11.917-4.135-12.47-10.453-.553-6.317 4.142-11.906 10.465-12.46 6.323-.553 11.917 4.137 12.47 10.453.553 6.318-4.142 11.907-10.465 12.46zm-.214-3.144c4.631-.405 8.058-4.485 7.653-9.112-.405-4.627-4.488-8.05-9.12-7.644-4.631.405-8.058 4.485-7.653 9.112.405 4.627 4.488 8.05 9.12 7.644zm-42.59-15.22l-1.303-14.895a1.525 1.525 0 0 1 1.387-1.65l14.91-1.305a1.525 1.525 0 0 1 1.652 1.385l1.303 14.895a1.525 1.525 0 0 1-1.386 1.651l-14.91 1.305a1.525 1.525 0 0 1-1.653-1.385zm13.795-14.746l-11.872 1.038 1.037 11.861 11.873-1.038-1.038-11.861zm-10.173 39.365a1.57 1.57 0 0 0 1.342 2.575 1.569 1.569 0 0 0 1.068-.555l5.293-6.301 6.307 5.287a1.57 1.57 0 1 0 2.024-2.408l-6.308-5.288 5.293-6.302a1.573 1.573 0 0 0-2.41-2.02l-5.294 6.302-6.307-5.287a1.573 1.573 0 0 0-2.022 2.408l6.307 5.287-5.293 6.302zm-77.434-24.16c6.322-.553 11.917 4.136 12.47 10.454.552 6.316-4.143 11.906-10.466 12.459-6.323.553-11.917-4.136-12.47-10.453-.552-6.318 4.143-11.906 10.466-12.46zm.334 3.134c-4.631.405-8.058 4.485-7.653 9.112.405 4.627 4.488 8.05 9.12 7.644 4.63-.405 8.057-4.485 7.653-9.112-.405-4.627-4.488-8.05-9.12-7.644zm-24.76-26.322c.233-.5.712-.836 1.257-.884l18.87-1.65c.545-.048 1.076.2 1.392.65.317.452.371 1.04.145 1.542l-7.963 17.655a1.54 1.54 0 0 1-1.266.902 1.54 1.54 0 0 1-1.403-.669L664.2 964.902a1.567 1.567 0 0 1-.125-1.543zm17.755.76l-13.615 1.19 7.87 11.546 5.745-12.736zm-32.294 47.946a1.525 1.525 0 0 1 1.386-1.651l14.911-1.305a1.525 1.525 0 0 1 1.652 1.385l1.303 14.896a1.525 1.525 0 0 1-1.386 1.65l-14.91 1.305a1.525 1.525 0 0 1-1.653-1.385l-1.303-14.895zm16.146 12.127l-1.038-11.86-11.872 1.038 1.038 11.86 11.872-1.038zm-16.855-37l6.308 5.286-5.294 6.302a1.573 1.573 0 0 0 2.41 2.02l5.293-6.302 6.308 5.288a1.573 1.573 0 0 0 2.023-2.408l-6.307-5.288 5.293-6.302a1.57 1.57 0 0 0-1.343-2.576 1.57 1.57 0 0 0-1.068.556l-5.293 6.302-6.306-5.286a1.569 1.569 0 0 0-1.149-.362 1.57 1.57 0 0 0-.875 2.77zm106.482-58.186c-6.322.553-11.916-4.135-12.47-10.453-.552-6.317 4.143-11.907 10.466-12.46 6.323-.553 11.917 4.137 12.47 10.453.553 6.318-4.143 11.907-10.466 12.46zm-.334-3.134c4.631-.405 8.058-4.484 7.653-9.111-.405-4.627-4.488-8.05-9.12-7.645-4.63.406-8.057 4.485-7.652 9.112.404 4.627 4.487 8.05 9.119 7.644zm24.76 26.323c-.232.5-.711.835-1.256.883l-18.872 1.651a1.537 1.537 0 0 1-1.391-.651 1.569 1.569 0 0 1-.145-1.542l7.963-17.655a1.54 1.54 0 0 1 1.266-.901 1.54 1.54 0 0 1 1.403.668l10.908 16.004c.311.456.358 1.043.125 1.543zm-17.755-.76l13.615-1.192-7.87-11.545-5.745 12.737zm32.294-47.946a1.525 1.525 0 0 1-1.386 1.65l-14.91 1.305a1.525 1.525 0 0 1-1.653-1.385l-1.303-14.895a1.525 1.525 0 0 1 1.386-1.651l14.91-1.305a1.525 1.525 0 0 1 1.653 1.385l1.303 14.896zM778.13 891.36l1.038 11.861 11.872-1.039-1.037-11.86-11.873 1.038zm16.855 37l-6.307-5.286 5.293-6.302a1.573 1.573 0 0 0-2.41-2.02l-5.293 6.302-6.308-5.287a1.573 1.573 0 0 0-2.023 2.408l6.307 5.287-5.293 6.303a1.57 1.57 0 0 0 1.343 2.575 1.57 1.57 0 0 0 1.068-.555l5.293-6.303 6.306 5.287c.333.279.748.396 1.149.361a1.57 1.57 0 0 0 .875-2.77zm-140.572-15.623c6.323-.553 11.917 4.135 12.47 10.453.552 6.316-4.143 11.906-10.466 12.46-6.322.552-11.917-4.137-12.47-10.454-.552-6.317 4.143-11.906 10.466-12.46zm.214 3.144c-4.631.405-8.058 4.484-7.653 9.111.405 4.627 4.488 8.05 9.12 7.645 4.63-.406 8.057-4.485 7.653-9.112-.405-4.627-4.488-8.05-9.12-7.644zm19.814-30.222c.317.451.372 1.038.146 1.54l-7.964 17.656a1.54 1.54 0 0 1-1.266.901 1.54 1.54 0 0 1-1.403-.668l-10.908-16.004a1.569 1.569 0 0 1-.125-1.543c.234-.5.713-.835 1.257-.883l18.872-1.651c.545-.048 1.075.2 1.391.652zm-17.353 3.831l7.87 11.546 5.745-12.737-13.615 1.191zm40.128 41.61l1.304 14.896a1.525 1.525 0 0 1-1.387 1.65l-14.91 1.305a1.525 1.525 0 0 1-1.652-1.385l-1.304-14.896a1.525 1.525 0 0 1 1.387-1.65l14.91-1.305a1.525 1.525 0 0 1 1.652 1.385zm-13.794 14.747l11.872-1.039-1.038-11.86-11.872 1.038 1.038 11.861zm10.173-39.365a1.57 1.57 0 0 0-1.342-2.576 1.569 1.569 0 0 0-1.069.556l-5.292 6.3-6.307-5.286a1.57 1.57 0 0 0-1.149-.362 1.57 1.57 0 0 0-.875 2.77l6.308 5.287-5.294 6.302a1.573 1.573 0 0 0 2.41 2.02l5.295-6.302 6.307 5.288a1.573 1.573 0 0 0 2.022-2.408l-6.307-5.288 5.293-6.301zm137.177 17.928c.553 6.317-4.141 11.907-10.465 12.46-6.323.553-11.917-4.136-12.47-10.453-.552-6.317 4.143-11.906 10.466-12.46 6.324-.553 11.917 4.137 12.47 10.453zm-3.147.215c-.404-4.627-4.487-8.05-9.119-7.644-4.631.405-8.058 4.484-7.653 9.112.405 4.627 4.488 8.05 9.12 7.644 4.63-.405 8.057-4.485 7.652-9.112zm30.248 19.79a1.57 1.57 0 0 1-1.542.145l-17.671-7.952a1.538 1.538 0 0 1-.902-1.265 1.537 1.537 0 0 1 .669-1.402l16.02-10.9a1.573 1.573 0 0 1 1.545-.125c.5.233.837.712.884 1.256l1.65 18.853c.047.544-.2 1.074-.653 1.39zm-3.832-17.336l-11.558 7.864 12.748 5.737-1.19-13.601zm-41.657 40.097l-14.91 1.304a1.525 1.525 0 0 1-1.652-1.384l-1.303-14.897a1.525 1.525 0 0 1 1.386-1.65l14.91-1.305a1.525 1.525 0 0 1 1.653 1.385l1.303 14.896a1.525 1.525 0 0 1-1.387 1.65zm-14.759-13.779l1.038 11.86 11.872-1.038-1.037-11.86-11.873 1.038zm39.402 10.157a1.574 1.574 0 0 0 2.022-2.409l-6.306-5.286 5.293-6.302c.28-.332.397-.747.362-1.147a1.574 1.574 0 0 0-2.772-.874l-5.294 6.302-6.307-5.287a1.574 1.574 0 0 0-2.216.194 1.57 1.57 0 0 0 .193 2.214l6.308 5.288-5.294 6.302a1.57 1.57 0 0 0 .194 2.214 1.574 1.574 0 0 0 2.216-.194l5.294-6.302 6.307 5.287zm-222.9 28.496c-.553-6.317 4.14-11.906 10.464-12.46 6.323-.553 11.917 4.137 12.47 10.453.553 6.317-4.142 11.907-10.465 12.46-6.324.553-11.917-4.136-12.47-10.453zm3.146-.215c.405 4.627 4.488 8.05 9.12 7.645 4.63-.406 8.057-4.485 7.652-9.112-.404-4.627-4.487-8.05-9.119-7.645-4.631.406-8.058 4.485-7.653 9.112zm-30.248-19.79a1.57 1.57 0 0 1 1.543-.145l17.67 7.952c.51.23.855.714.903 1.265a1.537 1.537 0 0 1-.67 1.402l-16.02 10.9a1.573 1.573 0 0 1-1.545.125 1.535 1.535 0 0 1-.884-1.256l-1.65-18.852c-.047-.545.201-1.074.653-1.39zm3.833 17.337l11.557-7.864-12.747-5.738 1.19 13.602zm41.656-40.098l14.91-1.304a1.525 1.525 0 0 1 1.653 1.385l1.303 14.896a1.525 1.525 0 0 1-1.387 1.65l-14.91 1.305a1.525 1.525 0 0 1-1.652-1.385l-1.303-14.896a1.525 1.525 0 0 1 1.386-1.65zm14.76 13.78l-1.038-11.861-11.873 1.038 1.038 11.861 11.872-1.039zm-39.402-10.158a1.574 1.574 0 0 0-2.023 2.41l6.307 5.285-5.294 6.302c-.28.333-.397.747-.362 1.148a1.574 1.574 0 0 0 2.772.874l5.294-6.303 6.307 5.287a1.574 1.574 0 0 0 2.217-.193 1.57 1.57 0 0 0-.194-2.214l-6.307-5.289 5.293-6.301a1.57 1.57 0 0 0-.194-2.214 1.574 1.574 0 0 0-2.216.194l-5.293 6.302-6.307-5.288zm118.83-58.038c.553 6.317-4.14 11.907-10.465 12.46-6.322.553-11.917-4.136-12.47-10.453-.552-6.317 4.143-11.906 10.466-12.46 6.324-.553 11.917 4.137 12.47 10.453zm-3.136.335c-.405-4.627-4.487-8.05-9.119-7.644-4.632.405-8.058 4.485-7.653 9.112.405 4.627 4.487 8.05 9.119 7.644 4.632-.405 8.058-4.485 7.653-9.112zm26.352-24.741c.5.233.836.711.884 1.256l1.65 18.852c.047.545-.201 1.074-.653 1.39-.452.317-1.04.372-1.543.146l-17.67-7.953a1.537 1.537 0 0 1-.903-1.264 1.538 1.538 0 0 1 .67-1.402l16.02-10.9a1.57 1.57 0 0 1 1.545-.125zm-.764 17.738l-1.19-13.601-11.557 7.864 12.747 5.737zm-47.986-32.254a1.525 1.525 0 0 1 1.652 1.385l1.303 14.896a1.525 1.525 0 0 1-1.387 1.65l-14.91 1.305a1.525 1.525 0 0 1-1.652-1.385l-1.303-14.896a1.525 1.525 0 0 1 1.386-1.65l14.91-1.305zm-12.142 16.132l11.872-1.039-1.037-11.86-11.873 1.038 1.038 11.861zm37.039-16.844l-5.293 6.302-6.307-5.288a1.574 1.574 0 0 0-2.217.194 1.57 1.57 0 0 0 .194 2.214l6.307 5.287-5.293 6.303a1.57 1.57 0 0 0 .194 2.214 1.574 1.574 0 0 0 2.216-.194l5.293-6.302 6.308 5.287a1.574 1.574 0 0 0 2.023-2.409l-6.308-5.287 5.293-6.3c.28-.333.397-.747.362-1.148a1.574 1.574 0 0 0-2.772-.874zm-19.673 94.614c6.323-.553 11.918 4.135 12.47 10.453.553 6.316-4.142 11.906-10.465 12.46-6.323.552-11.917-4.137-12.47-10.454-.552-6.318 4.143-11.906 10.465-12.46zm.215 3.144c-4.632.405-8.058 4.484-7.653 9.111.404 4.627 4.487 8.05 9.119 7.645 4.632-.406 8.058-4.485 7.653-9.112-.405-4.627-4.487-8.05-9.119-7.644zm19.814-30.223c.316.452.372 1.038.145 1.542l-7.963 17.654a1.54 1.54 0 0 1-1.266.902 1.54 1.54 0 0 1-1.403-.668l-10.908-16.004a1.569 1.569 0 0 1-.125-1.543c.233-.5.713-.835 1.257-.883l18.871-1.651c.545-.048 1.076.2 1.392.651zm-17.354 3.832l7.87 11.545 5.745-12.736-13.615 1.191zm40.13 41.61l1.302 14.895a1.525 1.525 0 0 1-1.386 1.651l-14.91 1.305a1.525 1.525 0 0 1-1.653-1.385l-1.303-14.896a1.525 1.525 0 0 1 1.386-1.65l14.911-1.305a1.525 1.525 0 0 1 1.652 1.385zm-13.795 14.747l11.872-1.039-1.038-11.86-11.872 1.038 1.038 11.86zm10.173-39.365a1.57 1.57 0 0 0-1.343-2.576 1.569 1.569 0 0 0-1.068.556l-5.292 6.3-6.307-5.287a1.57 1.57 0 0 0-1.149-.361 1.57 1.57 0 0 0-.875 2.77l6.307 5.287-5.293 6.302a1.573 1.573 0 0 0 2.41 2.02l5.294-6.302 6.307 5.288a1.573 1.573 0 0 0 2.023-2.408l-6.308-5.288 5.294-6.301zM532.08 961.586c6.323-.554 11.917 4.135 12.47 10.453.553 6.316-4.142 11.906-10.465 12.46-6.323.552-11.917-4.137-12.47-10.454-.553-6.318 4.142-11.906 10.465-12.46zm.215 3.143c-4.632.406-8.058 4.485-7.654 9.112.405 4.627 4.488 8.05 9.12 7.644 4.631-.405 8.058-4.484 7.653-9.111-.405-4.627-4.488-8.05-9.12-7.645zm19.814-30.222c.316.452.372 1.038.145 1.542l-7.963 17.654a1.54 1.54 0 0 1-1.266.902 1.54 1.54 0 0 1-1.404-.668l-10.908-16.004a1.569 1.569 0 0 1-.124-1.543c.233-.5.712-.836 1.257-.883l18.871-1.651c.545-.048 1.075.2 1.392.651zm-17.354 3.832l7.87 11.545 5.745-12.736-13.615 1.191zm40.129 41.61l1.303 14.895a1.525 1.525 0 0 1-1.386 1.651L559.89 997.8a1.525 1.525 0 0 1-1.652-1.385l-1.303-14.896a1.525 1.525 0 0 1 1.386-1.65l14.91-1.305a1.525 1.525 0 0 1 1.653 1.385zm-13.795 14.747l11.872-1.039-1.037-11.86-11.872 1.038 1.037 11.86zm10.174-39.365a1.57 1.57 0 0 0-1.343-2.576 1.569 1.569 0 0 0-1.068.556l-5.292 6.3-6.308-5.287a1.57 1.57 0 0 0-1.148-.361 1.57 1.57 0 0 0-.875 2.77l6.307 5.287-5.293 6.302a1.573 1.573 0 0 0 2.41 2.02l5.294-6.302 6.307 5.287a1.573 1.573 0 0 0 2.022-2.408l-6.307-5.287 5.294-6.301zm-149.288 5.347c6.323-.553 11.917 4.136 12.47 10.453.552 6.317-4.142 11.907-10.466 12.46-6.322.553-11.916-4.136-12.47-10.453-.552-6.318 4.143-11.906 10.466-12.46zm.214 3.144c-4.631.406-8.058 4.485-7.653 9.112.405 4.627 4.488 8.05 9.12 7.644 4.631-.405 8.057-4.484 7.653-9.111-.405-4.627-4.488-8.05-9.12-7.645zm19.814-30.222c.317.452.372 1.038.146 1.541l-7.964 17.655a1.54 1.54 0 0 1-1.266.902 1.54 1.54 0 0 1-1.403-.668l-10.908-16.004a1.569 1.569 0 0 1-.125-1.543c.234-.5.713-.836 1.258-.883l18.87-1.651c.546-.048 1.076.2 1.392.651zm-17.353 3.832l7.87 11.545 5.745-12.736-13.615 1.19zm40.129 41.61l1.303 14.895a1.525 1.525 0 0 1-1.387 1.651l-14.91 1.304a1.525 1.525 0 0 1-1.652-1.384l-1.304-14.896a1.525 1.525 0 0 1 1.387-1.651l14.91-1.305a1.525 1.525 0 0 1 1.653 1.386zm-13.795 14.747l11.872-1.039-1.038-11.861-11.872 1.039 1.038 11.86zm10.173-39.365a1.57 1.57 0 0 0-1.342-2.576 1.569 1.569 0 0 0-1.069.555l-5.292 6.301-6.307-5.287a1.57 1.57 0 0 0-1.148-.361 1.57 1.57 0 0 0-.875 2.77l6.307 5.287-5.293 6.302a1.573 1.573 0 0 0 2.41 2.02l5.294-6.302 6.307 5.287a1.573 1.573 0 0 0 2.022-2.408l-6.307-5.287 5.293-6.301zm85.352-63.364c-6.323.553-11.917-4.136-12.47-10.453-.553-6.317 4.142-11.907 10.465-12.46 6.323-.553 11.917 4.137 12.47 10.453.552 6.318-4.143 11.907-10.465 12.46zm-.215-3.144c4.632-.405 8.058-4.485 7.654-9.112-.405-4.627-4.488-8.05-9.12-7.644-4.631.405-8.058 4.484-7.653 9.112.405 4.627 4.488 8.049 9.12 7.644zm-19.814 30.222a1.567 1.567 0 0 1-.145-1.541l7.963-17.655a1.54 1.54 0 0 1 1.266-.902 1.54 1.54 0 0 1 1.403.668l10.909 16.004c.31.456.358 1.044.124 1.543-.233.5-.712.836-1.257.883l-18.871 1.652a1.537 1.537 0 0 1-1.392-.652zm17.354-3.832l-7.87-11.545-5.745 12.736 13.615-1.19zm-40.129-41.61l-1.303-14.895a1.525 1.525 0 0 1 1.386-1.65l14.911-1.305a1.525 1.525 0 0 1 1.652 1.385l1.303 14.895a1.525 1.525 0 0 1-1.386 1.651l-14.91 1.305a1.525 1.525 0 0 1-1.653-1.386zm13.795-14.747l-11.873 1.04 1.038 11.86 11.872-1.039-1.037-11.86zm-10.174 39.366a1.57 1.57 0 0 0 1.343 2.575 1.569 1.569 0 0 0 1.068-.555l5.292-6.301 6.307 5.287c.333.279.748.397 1.15.361a1.57 1.57 0 0 0 .874-2.77l-6.307-5.287 5.293-6.302a1.573 1.573 0 0 0-2.41-2.02l-5.294 6.302-6.307-5.287a1.573 1.573 0 0 0-2.022 2.408l6.307 5.287-5.294 6.302zm-90.024-13.02c6.323-.553 11.917 4.135 12.47 10.453.552 6.317-4.143 11.906-10.466 12.46-6.322.553-11.917-4.137-12.47-10.453-.552-6.318 4.143-11.907 10.466-12.46zm.214 3.144c-4.631.405-8.058 4.485-7.653 9.112.405 4.627 4.488 8.05 9.12 7.644 4.63-.405 8.057-4.485 7.653-9.112-.405-4.627-4.488-8.05-9.12-7.644zm19.814-30.222c.317.451.372 1.038.146 1.541l-7.964 17.655a1.54 1.54 0 0 1-1.266.902 1.54 1.54 0 0 1-1.403-.669l-10.908-16.003a1.569 1.569 0 0 1-.125-1.543c.234-.5.713-.836 1.258-.884l18.87-1.65c.546-.048 1.076.2 1.392.65zm-17.353 3.832l7.87 11.545 5.745-12.737-13.615 1.192zm40.128 41.61l1.304 14.895a1.525 1.525 0 0 1-1.387 1.65l-14.91 1.305a1.525 1.525 0 0 1-1.652-1.385l-1.304-14.895a1.525 1.525 0 0 1 1.387-1.651l14.91-1.305a1.525 1.525 0 0 1 1.652 1.385zm-13.794 14.746l11.872-1.038-1.038-11.861-11.872 1.038 1.038 11.861zm10.173-39.365a1.57 1.57 0 0 0-1.342-2.575 1.569 1.569 0 0 0-1.069.555l-5.292 6.301-6.307-5.287a1.57 1.57 0 0 0-1.149-.362 1.57 1.57 0 0 0-.874 2.77l6.307 5.288-5.293 6.302a1.573 1.573 0 0 0 2.41 2.02l5.294-6.302 6.307 5.287a1.573 1.573 0 0 0 2.022-2.408l-6.307-5.287 5.293-6.302zm124.713 19.02c-.553-6.317 4.141-11.907 10.465-12.46 6.323-.553 11.917 4.136 12.47 10.453.552 6.316-4.143 11.906-10.465 12.46-6.324.552-11.918-4.137-12.47-10.454zm3.136-.336c.405 4.627 4.488 8.05 9.12 7.645 4.63-.406 8.057-4.485 7.653-9.112-.405-4.627-4.488-8.05-9.12-7.645-4.631.406-8.058 4.485-7.653 9.112zm-26.352 24.742a1.534 1.534 0 0 1-.884-1.256l-1.65-18.853c-.047-.544.201-1.074.653-1.39a1.573 1.573 0 0 1 1.543-.145l17.67 7.952c.51.23.855.713.903 1.265a1.538 1.538 0 0 1-.67 1.402l-16.02 10.9a1.57 1.57 0 0 1-1.545.125zm.764-17.739l1.19 13.602 11.558-7.864-12.748-5.738zm47.987 32.255a1.525 1.525 0 0 1-1.653-1.385l-1.303-14.896a1.525 1.525 0 0 1 1.387-1.65l14.91-1.305a1.525 1.525 0 0 1 1.652 1.385l1.303 14.896a1.525 1.525 0 0 1-1.386 1.65l-14.91 1.305zm12.142-16.132l-11.873 1.038 1.038 11.86 11.872-1.038-1.037-11.86zm-37.04 16.844l5.293-6.302 6.308 5.287a1.574 1.574 0 0 0 2.216-.194 1.57 1.57 0 0 0-.194-2.214l-6.307-5.287 5.293-6.303a1.57 1.57 0 0 0-.193-2.214 1.574 1.574 0 0 0-2.217.194l-5.293 6.302-6.308-5.287a1.574 1.574 0 0 0-2.022 2.41l6.307 5.286-5.292 6.3c-.28.334-.398.748-.362 1.148a1.574 1.574 0 0 0 2.772.874zm-208.701 22.737c-.553-6.317 4.141-11.907 10.465-12.46 6.323-.553 11.917 4.136 12.47 10.453.552 6.317-4.143 11.906-10.465 12.46-6.324.553-11.917-4.137-12.47-10.453zm3.147-.215c.405 4.627 4.487 8.05 9.12 7.644 4.63-.405 8.057-4.484 7.652-9.112-.405-4.627-4.487-8.05-9.119-7.644-4.631.405-8.058 4.485-7.653 9.112zm-30.248-19.79a1.57 1.57 0 0 1 1.543-.145l17.67 7.952c.51.23.854.714.903 1.265a1.537 1.537 0 0 1-.67 1.402l-16.02 10.9a1.573 1.573 0 0 1-1.545.125 1.535 1.535 0 0 1-.884-1.256l-1.65-18.853c-.047-.544.201-1.074.653-1.39zm3.832 17.336l11.558-7.864-12.748-5.737 1.19 13.601zm41.657-40.097l14.91-1.304a1.525 1.525 0 0 1 1.652 1.385l1.304 14.896a1.525 1.525 0 0 1-1.387 1.65l-14.91 1.305a1.525 1.525 0 0 1-1.652-1.385l-1.304-14.896a1.525 1.525 0 0 1 1.387-1.65zm14.759 13.779l-1.038-11.86-11.872 1.038 1.037 11.86 11.873-1.038zm-39.401-10.157a1.574 1.574 0 0 0-2.023 2.409l6.306 5.286-5.293 6.302c-.28.333-.397.747-.362 1.148a1.574 1.574 0 0 0 2.772.874l5.294-6.303 6.307 5.287a1.574 1.574 0 0 0 2.216-.194 1.57 1.57 0 0 0-.193-2.214l-6.308-5.288 5.294-6.302a1.57 1.57 0 0 0-.194-2.214 1.574 1.574 0 0 0-2.216.194l-5.294 6.302-6.306-5.287zm104.39-62.295c-.552-6.317 4.142-11.907 10.466-12.46 6.323-.553 11.917 4.136 12.47 10.453.552 6.317-4.143 11.906-10.466 12.46-6.324.553-11.917-4.137-12.47-10.453zm3.148-.215c.404 4.627 4.487 8.05 9.119 7.644 4.631-.405 8.058-4.485 7.653-9.112-.405-4.627-4.488-8.05-9.12-7.644-4.63.405-8.057 4.485-7.652 9.112zm-30.248-19.79a1.57 1.57 0 0 1 1.542-.146l17.671 7.953c.51.23.854.714.902 1.265a1.537 1.537 0 0 1-.669 1.402l-16.02 10.9a1.573 1.573 0 0 1-1.545.125 1.535 1.535 0 0 1-.884-1.256l-1.65-18.853c-.047-.544.2-1.074.653-1.39zm3.832 17.336l11.558-7.864-12.748-5.737 1.19 13.601zm41.657-40.097l14.91-1.304a1.525 1.525 0 0 1 1.652 1.384l1.303 14.896a1.525 1.525 0 0 1-1.386 1.651l-14.91 1.304a1.525 1.525 0 0 1-1.653-1.384l-1.303-14.896a1.525 1.525 0 0 1 1.387-1.651zm14.759 13.779l-1.038-11.86-11.872 1.038 1.037 11.86 11.873-1.038zm-39.402-10.157a1.574 1.574 0 0 0-2.022 2.409l6.306 5.286-5.293 6.302c-.28.332-.397.747-.362 1.147a1.574 1.574 0 0 0 2.772.874l5.294-6.302 6.307 5.287a1.574 1.574 0 0 0 2.216-.194 1.57 1.57 0 0 0-.194-2.214l-6.307-5.288 5.293-6.302a1.57 1.57 0 0 0-.193-2.214 1.574 1.574 0 0 0-2.216.194l-5.294 6.302-6.307-5.287zm4.267 102.558c6.322-.553 11.917 4.135 12.47 10.453.552 6.317-4.143 11.906-10.466 12.46-6.323.553-11.917-4.137-12.47-10.454-.552-6.317 4.143-11.906 10.466-12.459zm.214 3.144c-4.632.405-8.058 4.484-7.653 9.112.405 4.627 4.487 8.049 9.119 7.644 4.632-.405 8.058-4.485 7.653-9.112-.404-4.627-4.487-8.05-9.119-7.644zm19.814-30.222c.316.451.372 1.038.145 1.54l-7.963 17.656a1.54 1.54 0 0 1-1.266.902 1.54 1.54 0 0 1-1.403-.669l-10.908-16.004a1.569 1.569 0 0 1-.125-1.543c.233-.5.713-.835 1.257-.883l18.871-1.65c.545-.049 1.076.2 1.392.65zm-17.354 3.831l7.87 11.546 5.745-12.737-13.615 1.191zm40.13 41.61l1.302 14.896a1.525 1.525 0 0 1-1.386 1.65l-14.91 1.305a1.525 1.525 0 0 1-1.653-1.385l-1.303-14.895a1.525 1.525 0 0 1 1.387-1.652l14.91-1.304a1.525 1.525 0 0 1 1.652 1.385zm-13.795 14.747l11.872-1.038-1.038-11.861-11.872 1.038 1.038 11.861zm10.173-39.365a1.57 1.57 0 0 0-1.343-2.576 1.569 1.569 0 0 0-1.068.556l-5.292 6.301-6.307-5.287a1.57 1.57 0 0 0-1.149-.362 1.57 1.57 0 0 0-.875 2.77l6.307 5.287-5.293 6.303a1.573 1.573 0 0 0 2.41 2.02l5.294-6.302 6.307 5.287a1.573 1.573 0 0 0 2.023-2.408l-6.307-5.287 5.293-6.302zM1240.508 737.49c6.323-.554 11.917 4.135 12.47 10.452.553 6.317-4.142 11.907-10.465 12.46-6.323.553-11.917-4.137-12.47-10.453-.553-6.318 4.143-11.906 10.465-12.46zm.335 3.133c-4.631.405-8.058 4.484-7.653 9.111.405 4.627 4.487 8.05 9.12 7.645 4.63-.406 8.057-4.485 7.652-9.112-.404-4.627-4.487-8.05-9.119-7.644zm-24.76-26.323c.232-.5.711-.835 1.256-.883l18.872-1.651c.544-.048 1.075.2 1.391.652.317.451.371 1.038.145 1.54l-7.963 17.656a1.54 1.54 0 0 1-1.266.901 1.54 1.54 0 0 1-1.403-.668l-10.908-16.004a1.567 1.567 0 0 1-.125-1.543zm17.755.76l-13.615 1.192 7.87 11.545 5.745-12.737zm-32.294 47.946a1.525 1.525 0 0 1 1.386-1.65l14.91-1.305a1.525 1.525 0 0 1 1.653 1.385l1.303 14.896a1.525 1.525 0 0 1-1.386 1.65l-14.911 1.305a1.525 1.525 0 0 1-1.652-1.385l-1.303-14.896zm16.146 12.128l-1.038-11.861-11.872 1.039 1.037 11.86 11.873-1.038zm-16.855-37a1.57 1.57 0 0 1 .875-2.77c.401-.035.816.082 1.149.361l6.306 5.287 5.293-6.303a1.57 1.57 0 0 1 1.068-.555 1.57 1.57 0 0 1 1.343 2.576l-5.293 6.302 6.307 5.287a1.573 1.573 0 0 1-2.022 2.408l-6.309-5.287-5.293 6.302a1.573 1.573 0 0 1-2.41-2.02l5.293-6.302-6.307-5.287zm-72.062 37.238c-6.323.553-11.917-4.135-12.47-10.453-.553-6.317 4.142-11.906 10.465-12.46 6.323-.553 11.917 4.137 12.47 10.453.553 6.318-4.142 11.907-10.465 12.46zm-.215-3.144c4.632-.405 8.058-4.485 7.654-9.112-.405-4.627-4.488-8.05-9.12-7.644-4.631.405-8.058 4.485-7.653 9.112.405 4.627 4.488 8.05 9.12 7.644zm-19.814 30.222a1.567 1.567 0 0 1-.145-1.541l7.963-17.655a1.54 1.54 0 0 1 1.266-.902 1.54 1.54 0 0 1 1.404.669l10.908 16.003c.31.456.358 1.044.124 1.543-.233.5-.712.836-1.257.884l-18.871 1.65a1.537 1.537 0 0 1-1.392-.65zm17.354-3.832l-7.87-11.545-5.745 12.737 13.615-1.192zm-40.129-41.61l-1.303-14.895a1.525 1.525 0 0 1 1.386-1.65l14.911-1.305a1.525 1.525 0 0 1 1.652 1.385l1.303 14.895a1.525 1.525 0 0 1-1.386 1.651l-14.91 1.305a1.525 1.525 0 0 1-1.653-1.385zm13.795-14.746l-11.872 1.038 1.037 11.861 11.872-1.038-1.037-11.861zm-10.174 39.365l5.294-6.302-6.307-5.287a1.573 1.573 0 0 1 2.022-2.408l6.307 5.287 5.294-6.302a1.573 1.573 0 0 1 2.41 2.02l-5.293 6.302 6.307 5.288a1.57 1.57 0 0 1-.875 2.77 1.57 1.57 0 0 1-1.148-.362l-6.308-5.287-5.292 6.3c-.28.334-.667.521-1.068.556a1.57 1.57 0 0 1-1.343-2.576zm114.969 38.811c6.323-.553 11.917 4.136 12.47 10.453.552 6.317-4.143 11.906-10.466 12.46-6.322.553-11.917-4.137-12.47-10.453-.552-6.318 4.143-11.907 10.466-12.46zm.214 3.144c-4.631.405-8.058 4.485-7.653 9.112.405 4.627 4.488 8.05 9.12 7.644 4.63-.405 8.057-4.485 7.653-9.112-.405-4.627-4.488-8.05-9.12-7.644zm19.814-30.222c.317.451.372 1.038.146 1.541l-7.964 17.655a1.54 1.54 0 0 1-1.266.902 1.54 1.54 0 0 1-1.403-.668l-10.908-16.004a1.569 1.569 0 0 1-.125-1.543c.234-.5.713-.836 1.257-.884l18.872-1.65c.545-.048 1.075.2 1.391.65zm-17.353 3.832l7.87 11.545 5.745-12.736-13.615 1.19zm40.128 41.61l1.304 14.895a1.525 1.525 0 0 1-1.387 1.65l-14.91 1.305a1.525 1.525 0 0 1-1.652-1.385l-1.304-14.895a1.525 1.525 0 0 1 1.387-1.651l14.91-1.305a1.525 1.525 0 0 1 1.652 1.385zm-13.794 14.746l11.872-1.038-1.038-11.861-11.872 1.038 1.038 11.861zm10.173-39.365l-5.293 6.302 6.307 5.287a1.573 1.573 0 0 1-2.022 2.408l-6.307-5.287-5.295 6.302a1.573 1.573 0 0 1-2.41-2.02l5.294-6.302-6.308-5.288a1.57 1.57 0 0 1 .875-2.77 1.57 1.57 0 0 1 1.149.362l6.307 5.287 5.292-6.3c.28-.333.667-.521 1.069-.556a1.57 1.57 0 0 1 1.343 2.576zm-135.723 39.797c-6.323.553-11.917-4.135-12.47-10.453-.552-6.317 4.142-11.906 10.465-12.46 6.323-.553 11.917 4.137 12.47 10.453.553 6.318-4.142 11.907-10.465 12.46zm-.335-3.133c4.632-.406 8.058-4.485 7.653-9.112-.404-4.627-4.487-8.05-9.119-7.644-4.632.405-8.058 4.484-7.653 9.111.405 4.627 4.487 8.05 9.12 7.645zm24.761 26.322c-.233.5-.712.836-1.257.883l-18.871 1.651a1.537 1.537 0 0 1-1.392-.651 1.569 1.569 0 0 1-.145-1.542l7.963-17.654a1.54 1.54 0 0 1 1.266-.902 1.54 1.54 0 0 1 1.404.668l10.908 16.004c.31.456.357 1.043.124 1.543zm-17.755-.76l13.615-1.191-7.87-11.546-5.745 12.737zm32.293-47.946a1.525 1.525 0 0 1-1.386 1.651l-14.91 1.304a1.525 1.525 0 0 1-1.653-1.385l-1.303-14.895a1.525 1.525 0 0 1 1.387-1.651l14.91-1.305a1.525 1.525 0 0 1 1.652 1.385l1.303 14.896zm-16.145-12.128l1.037 11.861 11.872-1.038-1.037-11.861-11.872 1.038zm16.854 37a1.57 1.57 0 0 1-.875 2.77 1.569 1.569 0 0 1-1.148-.361l-6.306-5.286-5.293 6.302a1.57 1.57 0 0 1-1.069.555 1.57 1.57 0 0 1-1.342-2.575l5.293-6.303-6.307-5.287a1.573 1.573 0 0 1 2.022-2.408l6.308 5.287 5.293-6.302a1.573 1.573 0 0 1 2.41 2.02l-5.293 6.302 6.307 5.287zm131.98-41.476c.553 6.317-4.141 11.906-10.465 12.46-6.323.553-11.917-4.137-12.47-10.453-.553-6.317 4.142-11.907 10.465-12.46 6.324-.553 11.917 4.137 12.47 10.453zm-3.136.335c-.405-4.627-4.488-8.05-9.12-7.644-4.631.405-8.058 4.484-7.653 9.112.405 4.627 4.488 8.05 9.12 7.644 4.63-.405 8.057-4.485 7.653-9.112zm26.351-24.741c.5.232.837.711.884 1.255l1.65 18.853c.047.544-.2 1.074-.653 1.39-.452.317-1.039.371-1.542.146l-17.67-7.953a1.537 1.537 0 0 1-.903-1.264 1.538 1.538 0 0 1 .669-1.403l16.02-10.9a1.57 1.57 0 0 1 1.545-.124zm-.763 17.738l-1.19-13.602-11.558 7.864 12.748 5.738zm-47.987-32.255a1.525 1.525 0 0 1 1.652 1.385l1.304 14.896a1.525 1.525 0 0 1-1.387 1.651l-14.91 1.304a1.525 1.525 0 0 1-1.652-1.384l-1.304-14.896a1.525 1.525 0 0 1 1.387-1.651l14.91-1.305zm-12.142 16.133l11.873-1.039-1.038-11.86-11.873 1.038 1.038 11.86zm37.039-16.845a1.574 1.574 0 0 1 2.41 2.021l-5.292 6.301 6.307 5.287c.333.28.52.667.556 1.067a1.574 1.574 0 0 1-2.578 1.342l-6.308-5.287-5.294 6.302a1.574 1.574 0 0 1-2.216.194 1.57 1.57 0 0 1-.194-2.214l5.294-6.303-6.308-5.287a1.57 1.57 0 0 1-.193-2.214 1.574 1.574 0 0 1 2.216-.194l6.307 5.287 5.293-6.302zm-224.462 10.643c-.553-6.316 4.14-11.906 10.465-12.459 6.323-.553 11.917 4.136 12.47 10.453.552 6.317-4.143 11.906-10.466 12.46-6.323.553-11.917-4.137-12.47-10.454zm3.136-.335c.405 4.628 4.488 8.05 9.12 7.645 4.63-.405 8.057-4.485 7.652-9.112-.404-4.627-4.487-8.05-9.119-7.644-4.631.405-8.058 4.484-7.653 9.111zm-26.352 24.742a1.534 1.534 0 0 1-.884-1.256l-1.65-18.853c-.047-.544.201-1.074.653-1.39a1.573 1.573 0 0 1 1.543-.145l17.67 7.953c.51.23.855.713.903 1.264a1.538 1.538 0 0 1-.67 1.402l-16.02 10.9a1.57 1.57 0 0 1-1.545.125zm.764-17.738l1.19 13.601 11.558-7.864-12.748-5.737zm47.987 32.254a1.525 1.525 0 0 1-1.653-1.385l-1.303-14.896a1.525 1.525 0 0 1 1.387-1.65l14.91-1.305a1.525 1.525 0 0 1 1.652 1.385l1.303 14.896a1.525 1.525 0 0 1-1.386 1.65l-14.91 1.305zm12.142-16.132l-11.873 1.039 1.038 11.86 11.872-1.039-1.037-11.86zm-37.04 16.844a1.574 1.574 0 0 1-2.41-2.02l5.293-6.302-6.307-5.286a1.566 1.566 0 0 1-.556-1.068 1.574 1.574 0 0 1 2.578-1.342l6.308 5.287 5.293-6.301a1.574 1.574 0 0 1 2.217-.194 1.57 1.57 0 0 1 .193 2.214l-5.293 6.303 6.307 5.287a1.57 1.57 0 0 1 .194 2.214 1.574 1.574 0 0 1-2.216.193l-6.308-5.287-5.292 6.302zm127.104 36.522c.553 6.316-4.141 11.906-10.465 12.46-6.323.553-11.917-4.137-12.47-10.454-.552-6.316 4.143-11.906 10.465-12.459 6.324-.553 11.918 4.136 12.47 10.453zm-3.147.215c-.405-4.627-4.487-8.05-9.119-7.645-4.631.405-8.058 4.485-7.653 9.112.405 4.627 4.487 8.05 9.12 7.644 4.63-.405 8.057-4.484 7.652-9.111zm30.248 19.79a1.57 1.57 0 0 1-1.543.145l-17.67-7.953a1.538 1.538 0 0 1-.902-1.264 1.537 1.537 0 0 1 .669-1.402l16.02-10.9a1.573 1.573 0 0 1 1.545-.126c.5.233.837.712.884 1.256l1.65 18.853c.047.545-.2 1.074-.653 1.39zm-3.832-17.337l-11.558 7.864 12.748 5.738-1.19-13.602zm-41.657 40.097l-14.91 1.305a1.525 1.525 0 0 1-1.652-1.385l-1.303-14.896a1.525 1.525 0 0 1 1.386-1.65l14.91-1.305a1.525 1.525 0 0 1 1.653 1.385l1.303 14.896a1.525 1.525 0 0 1-1.387 1.65zm-14.759-13.778l1.038 11.86 11.872-1.039-1.037-11.86-11.873 1.039zm39.401 10.156l-6.306-5.287-5.294 6.302a1.574 1.574 0 0 1-2.216.194 1.57 1.57 0 0 1-.194-2.214l5.294-6.302-6.308-5.288a1.57 1.57 0 0 1-.193-2.214 1.574 1.574 0 0 1 2.216-.194l6.307 5.287 5.294-6.302a1.574 1.574 0 0 1 2.41 2.022l-5.293 6.301 6.306 5.286c.333.28.52.667.556 1.068a1.574 1.574 0 0 1-2.578 1.342zm-35.802-89.76c-6.323.553-11.917-4.136-12.47-10.453-.553-6.317 4.142-11.907 10.465-12.46 6.323-.553 11.917 4.137 12.47 10.453.553 6.318-4.143 11.906-10.465 12.46zm-.335-3.134c4.632-.405 8.058-4.484 7.653-9.111-.405-4.627-4.487-8.05-9.12-7.645-4.63.406-8.057 4.485-7.652 9.112.404 4.627 4.487 8.05 9.119 7.644zm24.76 26.323c-.232.5-.711.835-1.256.883l-18.872 1.651a1.537 1.537 0 0 1-1.391-.652 1.569 1.569 0 0 1-.145-1.54l7.963-17.656a1.54 1.54 0 0 1 1.266-.901 1.54 1.54 0 0 1 1.403.668l10.908 16.004c.311.456.358 1.043.125 1.543zm-17.754-.76l13.614-1.192-7.87-11.545-5.744 12.736zm32.293-47.946a1.525 1.525 0 0 1-1.386 1.65l-14.91 1.305a1.525 1.525 0 0 1-1.653-1.385l-1.303-14.896a1.525 1.525 0 0 1 1.386-1.65l14.911-1.305a1.525 1.525 0 0 1 1.652 1.385l1.303 14.896zm-16.146-12.128l1.038 11.861 11.872-1.039-1.037-11.86-11.873 1.038zm16.855 37a1.57 1.57 0 0 1-.875 2.77 1.569 1.569 0 0 1-1.149-.361l-6.306-5.287-5.293 6.302a1.57 1.57 0 0 1-1.068.556 1.57 1.57 0 0 1-1.343-2.576l5.293-6.302-6.307-5.287a1.573 1.573 0 0 1 2.022-2.408l6.309 5.287 5.293-6.302a1.573 1.573 0 0 1 2.41 2.02l-5.293 6.302 6.307 5.287zm-213.375 19.355c-6.322.553-11.917-4.135-12.47-10.453-.552-6.317 4.143-11.906 10.466-12.46 6.323-.553 11.917 4.137 12.47 10.453.552 6.318-4.143 11.907-10.466 12.46zm-.334-3.133c4.631-.406 8.058-4.485 7.653-9.112-.405-4.627-4.488-8.05-9.12-7.644-4.63.405-8.057 4.484-7.653 9.111.405 4.627 4.488 8.05 9.12 7.645zm24.76 26.322c-.233.5-.712.836-1.257.883l-18.87 1.651a1.537 1.537 0 0 1-1.392-.651 1.569 1.569 0 0 1-.145-1.542l7.963-17.654a1.54 1.54 0 0 1 1.266-.902 1.54 1.54 0 0 1 1.403.668l10.908 16.004c.31.456.358 1.043.125 1.543zm-17.755-.76l13.615-1.191-7.87-11.546-5.745 12.737zm32.294-47.946a1.525 1.525 0 0 1-1.386 1.65l-14.911 1.305a1.525 1.525 0 0 1-1.652-1.385l-1.303-14.895a1.525 1.525 0 0 1 1.386-1.651l14.91-1.305a1.525 1.525 0 0 1 1.653 1.385l1.303 14.896zm-16.146-12.128l1.038 11.861 11.872-1.038-1.038-11.861-11.872 1.038zm16.855 37a1.57 1.57 0 0 1-.875 2.77 1.569 1.569 0 0 1-1.149-.361l-6.306-5.286-5.293 6.302a1.57 1.57 0 0 1-1.068.555 1.57 1.57 0 0 1-1.343-2.575l5.293-6.303-6.307-5.287a1.573 1.573 0 0 1 2.022-2.408l6.309 5.287 5.293-6.302a1.573 1.573 0 0 1 2.41 2.02l-5.294 6.302 6.308 5.287zM870.787 847.13c-6.322.553-11.917-4.135-12.47-10.453-.552-6.317 4.143-11.906 10.466-12.46 6.323-.553 11.917 4.137 12.47 10.453.552 6.318-4.143 11.907-10.466 12.46zm-.334-3.133c4.631-.406 8.058-4.485 7.653-9.112-.405-4.627-4.488-8.05-9.12-7.644-4.63.405-8.057 4.484-7.653 9.111.405 4.627 4.488 8.05 9.12 7.645zm24.76 26.322c-.233.5-.712.835-1.257.883l-18.87 1.651a1.537 1.537 0 0 1-1.392-.651 1.569 1.569 0 0 1-.146-1.542l7.964-17.655a1.54 1.54 0 0 1 1.266-.901 1.54 1.54 0 0 1 1.403.668l10.908 16.004c.31.456.358 1.043.125 1.543zm-17.755-.76l13.615-1.191-7.87-11.546-5.745 12.737zm32.294-47.946a1.525 1.525 0 0 1-1.386 1.65l-14.911 1.305a1.525 1.525 0 0 1-1.652-1.385l-1.303-14.895a1.525 1.525 0 0 1 1.386-1.651l14.91-1.305a1.525 1.525 0 0 1 1.653 1.385l1.303 14.896zm-16.146-12.128l1.038 11.861 11.872-1.038-1.038-11.861-11.872 1.038zm16.855 37a1.57 1.57 0 0 1-.875 2.77 1.569 1.569 0 0 1-1.149-.361l-6.306-5.286-5.293 6.302a1.57 1.57 0 0 1-1.068.555 1.57 1.57 0 0 1-1.343-2.575l5.293-6.303-6.307-5.287a1.573 1.573 0 0 1 2.022-2.408l6.309 5.287 5.293-6.302a1.573 1.573 0 0 1 2.41 2.02l-5.294 6.302 6.308 5.287zm95.057 47.58c6.323-.552 11.917 4.136 12.47 10.454.553 6.316-4.142 11.906-10.465 12.46-6.323.553-11.917-4.137-12.47-10.454-.553-6.317 4.143-11.906 10.465-12.46zm.335 3.134c-4.632.405-8.058 4.485-7.653 9.112.405 4.627 4.487 8.05 9.12 7.644 4.63-.405 8.057-4.484 7.652-9.111-.404-4.628-4.487-8.05-9.119-7.645zm-24.76-26.322c.232-.5.711-.836 1.256-.883l18.872-1.651c.544-.048 1.075.2 1.391.651.317.452.371 1.038.145 1.541l-7.963 17.655a1.54 1.54 0 0 1-1.266.902 1.54 1.54 0 0 1-1.403-.668l-10.908-16.004a1.567 1.567 0 0 1-.125-1.543zm17.754.76l-13.614 1.191 7.87 11.545 5.744-12.736zm-32.293 47.946a1.525 1.525 0 0 1 1.386-1.651l14.91-1.305a1.525 1.525 0 0 1 1.653 1.386l1.303 14.895a1.525 1.525 0 0 1-1.386 1.65l-14.911 1.305a1.525 1.525 0 0 1-1.652-1.385l-1.303-14.895zM982.7 931.71l-1.038-11.86-11.872 1.038 1.037 11.861 11.873-1.039zm-16.855-37a1.57 1.57 0 0 1 .875-2.77c.401-.035.816.083 1.149.362l6.306 5.286 5.293-6.302a1.57 1.57 0 0 1 1.068-.555 1.57 1.57 0 0 1 1.343 2.575l-5.293 6.303 6.307 5.287a1.573 1.573 0 0 1-2.022 2.408l-6.309-5.287-5.293 6.302a1.573 1.573 0 0 1-2.41-2.02l5.293-6.302-6.307-5.287zm-86.396 28.454c-6.323.553-11.917-4.135-12.47-10.453-.552-6.316 4.143-11.906 10.465-12.46 6.324-.552 11.918 4.137 12.47 10.454.553 6.317-4.142 11.906-10.465 12.46zm-.335-3.133c4.632-.405 8.059-4.485 7.654-9.112-.405-4.627-4.488-8.05-9.12-7.644-4.631.405-8.058 4.485-7.653 9.112.405 4.627 4.488 8.05 9.12 7.644zm24.761 26.322c-.233.5-.712.836-1.257.884l-18.871 1.65a1.537 1.537 0 0 1-1.392-.651 1.569 1.569 0 0 1-.145-1.541l7.964-17.655a1.54 1.54 0 0 1 1.265-.902 1.54 1.54 0 0 1 1.404.668l10.908 16.004c.31.456.358 1.044.124 1.543zm-17.755-.76l13.615-1.191-7.87-11.545-5.745 12.736zm32.294-47.946a1.525 1.525 0 0 1-1.387 1.651l-14.91 1.305a1.525 1.525 0 0 1-1.652-1.385l-1.304-14.896a1.525 1.525 0 0 1 1.387-1.65l14.91-1.305a1.525 1.525 0 0 1 1.653 1.385l1.303 14.895zm-16.146-12.127l1.038 11.86 11.872-1.038-1.038-11.861-11.872 1.039zm16.854 37a1.57 1.57 0 0 1-.875 2.77 1.569 1.569 0 0 1-1.148-.362l-6.306-5.286-5.293 6.302a1.57 1.57 0 0 1-1.069.556 1.57 1.57 0 0 1-1.342-2.576l5.293-6.303-6.307-5.287a1.573 1.573 0 0 1 2.022-2.408l6.309 5.287 5.293-6.302a1.573 1.573 0 0 1 2.41 2.02l-5.294 6.303 6.307 5.286zm119.516-40.386c-.553-6.317 4.141-11.906 10.465-12.46 6.323-.553 11.917 4.137 12.47 10.454.552 6.316-4.143 11.906-10.466 12.459-6.324.553-11.917-4.136-12.47-10.453zm3.147-.215c.404 4.627 4.487 8.05 9.119 7.645 4.631-.406 8.058-4.485 7.653-9.112-.405-4.627-4.488-8.05-9.12-7.645-4.63.406-8.057 4.485-7.652 9.112zm-30.248-19.79a1.57 1.57 0 0 1 1.542-.145l17.67 7.953c.51.23.855.713.903 1.264a1.537 1.537 0 0 1-.669 1.402l-16.02 10.9a1.573 1.573 0 0 1-1.545.125 1.535 1.535 0 0 1-.884-1.255l-1.65-18.853c-.047-.545.2-1.074.653-1.39zm3.832 17.337l11.558-7.864-12.748-5.738 1.19 13.602zm41.657-40.097l14.91-1.305a1.525 1.525 0 0 1 1.652 1.385l1.303 14.896a1.525 1.525 0 0 1-1.386 1.65l-14.91 1.305a1.525 1.525 0 0 1-1.653-1.385l-1.303-14.896a1.525 1.525 0 0 1 1.387-1.65zm14.759 13.778l-1.038-11.86-11.872 1.038 1.037 11.861 11.873-1.039zm-39.402-10.156l6.307 5.287 5.294-6.302a1.574 1.574 0 0 1 2.216-.194 1.57 1.57 0 0 1 .193 2.214l-5.293 6.302 6.307 5.288a1.57 1.57 0 0 1 .194 2.214 1.574 1.574 0 0 1-2.216.194l-6.307-5.287-5.294 6.302a1.574 1.574 0 0 1-2.41-2.022l5.293-6.302-6.306-5.286a1.566 1.566 0 0 1-.556-1.067 1.574 1.574 0 0 1 2.578-1.342zM822.904 856.84c-.553-6.317 4.141-11.906 10.465-12.46 6.323-.553 11.917 4.137 12.47 10.453.553 6.317-4.142 11.907-10.465 12.46-6.324.553-11.917-4.136-12.47-10.453zm3.136-.335c.405 4.627 4.488 8.05 9.12 7.644 4.631-.405 8.058-4.484 7.653-9.111-.405-4.627-4.488-8.05-9.12-7.645-4.63.405-8.057 4.485-7.653 9.112zm-26.351 24.742a1.534 1.534 0 0 1-.884-1.256l-1.65-18.853c-.047-.544.2-1.074.653-1.39a1.573 1.573 0 0 1 1.542-.146l17.67 7.953c.51.23.855.713.903 1.265a1.538 1.538 0 0 1-.669 1.402l-16.02 10.9a1.57 1.57 0 0 1-1.545.125zm.763-17.739l1.19 13.602 11.558-7.864-12.748-5.738zm47.987 32.255a1.525 1.525 0 0 1-1.652-1.385l-1.304-14.896a1.525 1.525 0 0 1 1.387-1.65l14.91-1.305a1.525 1.525 0 0 1 1.653 1.385l1.303 14.896a1.525 1.525 0 0 1-1.387 1.65l-14.91 1.305zm12.142-16.133l-11.872 1.04 1.037 11.86 11.873-1.039-1.038-11.86zm-37.039 16.845a1.574 1.574 0 0 1-2.41-2.021l5.292-6.301-6.307-5.287a1.566 1.566 0 0 1-.556-1.067 1.574 1.574 0 0 1 2.578-1.342l6.308 5.287 5.294-6.302a1.574 1.574 0 0 1 2.216-.194 1.57 1.57 0 0 1 .194 2.214l-5.294 6.303 6.308 5.287a1.57 1.57 0 0 1 .193 2.214 1.574 1.574 0 0 1-2.216.194l-6.307-5.287-5.293 6.302zm113.623 43.222c-.553-6.317 4.14-11.906 10.465-12.46 6.323-.553 11.917 4.137 12.47 10.453.552 6.317-4.143 11.907-10.466 12.46-6.323.553-11.917-4.137-12.47-10.453zm3.136-.335c.405 4.627 4.488 8.05 9.12 7.644 4.63-.405 8.057-4.484 7.652-9.112-.404-4.627-4.487-8.05-9.119-7.644-4.631.405-8.058 4.485-7.653 9.112zm-26.352 24.741a1.534 1.534 0 0 1-.884-1.255l-1.65-18.853c-.047-.544.201-1.074.653-1.39a1.573 1.573 0 0 1 1.543-.146l17.67 7.953c.51.23.855.713.903 1.264a1.538 1.538 0 0 1-.67 1.403l-16.02 10.9a1.57 1.57 0 0 1-1.545.124zm.764-17.738l1.19 13.602 11.558-7.864-12.748-5.738zM962.7 978.62a1.525 1.525 0 0 1-1.653-1.385l-1.303-14.896a1.525 1.525 0 0 1 1.387-1.651l14.91-1.304a1.525 1.525 0 0 1 1.652 1.384l1.303 14.896a1.525 1.525 0 0 1-1.386 1.651l-14.91 1.305zm12.142-16.133l-11.873 1.039 1.038 11.86 11.872-1.038-1.037-11.86zm-37.04 16.845a1.574 1.574 0 0 1-2.41-2.021l5.293-6.301-6.307-5.287a1.566 1.566 0 0 1-.556-1.067 1.574 1.574 0 0 1 2.578-1.342l6.308 5.287 5.293-6.302a1.574 1.574 0 0 1 2.217-.194 1.57 1.57 0 0 1 .193 2.214l-5.293 6.303 6.307 5.287a1.57 1.57 0 0 1 .194 2.214 1.574 1.574 0 0 1-2.216.194l-6.308-5.287-5.292 6.302zM924.196 877.59c-6.323.553-11.917-4.135-12.47-10.453-.552-6.317 4.143-11.906 10.465-12.46 6.323-.553 11.918 4.137 12.47 10.453.553 6.318-4.142 11.907-10.465 12.46zm-.335-3.133c4.632-.406 8.058-4.485 7.654-9.112-.405-4.627-4.488-8.05-9.12-7.644-4.631.405-8.058 4.484-7.653 9.111.405 4.627 4.488 8.05 9.12 7.645zm24.761 26.322c-.233.5-.712.836-1.257.883l-18.871 1.651a1.537 1.537 0 0 1-1.392-.651 1.569 1.569 0 0 1-.145-1.542l7.963-17.654a1.54 1.54 0 0 1 1.266-.902 1.54 1.54 0 0 1 1.404.668l10.908 16.004c.31.456.357 1.043.124 1.543zm-17.755-.76l13.615-1.191-7.87-11.546-5.745 12.737zm32.294-47.946a1.525 1.525 0 0 1-1.387 1.651l-14.91 1.305a1.525 1.525 0 0 1-1.653-1.386l-1.303-14.895a1.525 1.525 0 0 1 1.387-1.651l14.91-1.304a1.525 1.525 0 0 1 1.652 1.384l1.304 14.896zm-16.146-12.128l1.037 11.861 11.873-1.038-1.038-11.861-11.872 1.038zm16.854 37a1.57 1.57 0 0 1-.875 2.77 1.569 1.569 0 0 1-1.148-.361l-6.306-5.286-5.293 6.302a1.57 1.57 0 0 1-1.069.555 1.57 1.57 0 0 1-1.342-2.575l5.293-6.303-6.307-5.287a1.573 1.573 0 0 1 2.022-2.408l6.308 5.287 5.293-6.302a1.573 1.573 0 0 1 2.41 2.02l-5.293 6.302 6.307 5.287zM1710.664 604.005c6.322-.554 11.916 4.135 12.47 10.453.552 6.316-4.143 11.906-10.466 12.46-6.323.552-11.917-4.137-12.47-10.454-.552-6.317 4.143-11.906 10.466-12.46zm.334 3.133c-4.631.405-8.058 4.485-7.653 9.112.405 4.627 4.488 8.05 9.12 7.644 4.63-.405 8.057-4.485 7.653-9.112-.405-4.627-4.488-8.05-9.12-7.644zm-24.76-26.322c.233-.5.712-.836 1.257-.884l18.87-1.65c.545-.048 1.076.2 1.392.65.317.452.371 1.04.145 1.542l-7.963 17.655a1.54 1.54 0 0 1-1.266.902 1.54 1.54 0 0 1-1.403-.668l-10.908-16.004a1.567 1.567 0 0 1-.125-1.543zm17.755.76l-13.615 1.191 7.87 11.545 5.745-12.736zm-32.294 47.946a1.525 1.525 0 0 1 1.386-1.651l14.911-1.305a1.525 1.525 0 0 1 1.652 1.385l1.303 14.896a1.525 1.525 0 0 1-1.386 1.65l-14.91 1.305a1.525 1.525 0 0 1-1.653-1.385l-1.303-14.895zm16.146 12.127l-1.038-11.86-11.872 1.038 1.038 11.86 11.872-1.038zm-16.855-37a1.57 1.57 0 0 1 .875-2.77c.402-.035.816.083 1.149.362l6.306 5.286 5.293-6.302a1.57 1.57 0 0 1 1.068-.556 1.57 1.57 0 0 1 1.343 2.576l-5.293 6.302 6.307 5.288a1.573 1.573 0 0 1-2.022 2.408l-6.309-5.287-5.293 6.302a1.573 1.573 0 0 1-2.41-2.02l5.294-6.303-6.308-5.286zm-72.062 37.238c-6.323.553-11.917-4.135-12.47-10.453-.553-6.316 4.142-11.906 10.465-12.46 6.323-.552 11.917 4.137 12.47 10.454.553 6.317-4.142 11.906-10.465 12.46zm-.215-3.144c4.632-.405 8.059-4.484 7.654-9.111-.405-4.627-4.488-8.05-9.12-7.645-4.631.406-8.058 4.485-7.653 9.112.405 4.627 4.488 8.05 9.12 7.644zm-19.814 30.222a1.567 1.567 0 0 1-.145-1.54l7.963-17.656a1.54 1.54 0 0 1 1.266-.901 1.54 1.54 0 0 1 1.404.668l10.908 16.004c.31.456.358 1.043.125 1.543-.234.5-.713.835-1.258.883l-18.871 1.651a1.537 1.537 0 0 1-1.392-.652zm17.354-3.831l-7.87-11.546-5.745 12.737 13.615-1.191zm-40.129-41.61l-1.303-14.896a1.525 1.525 0 0 1 1.387-1.65l14.91-1.305a1.525 1.525 0 0 1 1.652 1.385l1.303 14.896a1.525 1.525 0 0 1-1.386 1.65l-14.91 1.305a1.525 1.525 0 0 1-1.653-1.385zm13.795-14.747l-11.872 1.039 1.037 11.86 11.873-1.038-1.038-11.861zm-10.173 39.365l5.293-6.301-6.307-5.288a1.573 1.573 0 0 1 2.022-2.408l6.307 5.288 5.294-6.303a1.573 1.573 0 0 1 2.41 2.02l-5.293 6.303 6.307 5.287a1.57 1.57 0 0 1-.875 2.77 1.57 1.57 0 0 1-1.148-.362l-6.307-5.287-5.293 6.301c-.279.333-.667.52-1.068.556a1.57 1.57 0 0 1-1.343-2.576zm114.968 38.812c6.323-.554 11.917 4.135 12.47 10.452.552 6.317-4.143 11.907-10.466 12.46-6.322.553-11.917-4.136-12.47-10.453-.552-6.318 4.143-11.906 10.466-12.46zm.214 3.143c-4.631.406-8.058 4.485-7.653 9.112.405 4.627 4.488 8.05 9.12 7.644 4.631-.405 8.057-4.484 7.653-9.111-.405-4.627-4.488-8.05-9.12-7.645zm19.814-30.222c.317.452.372 1.038.146 1.542l-7.964 17.654a1.54 1.54 0 0 1-1.266.902 1.54 1.54 0 0 1-1.403-.668l-10.908-16.004a1.569 1.569 0 0 1-.125-1.543c.234-.5.713-.836 1.258-.883l18.87-1.651c.546-.048 1.076.2 1.392.651zm-17.353 3.832l7.87 11.545 5.745-12.736-13.615 1.191zm40.129 41.61l1.303 14.895a1.525 1.525 0 0 1-1.387 1.651l-14.91 1.305a1.525 1.525 0 0 1-1.652-1.385l-1.304-14.896a1.525 1.525 0 0 1 1.387-1.651l14.91-1.304a1.525 1.525 0 0 1 1.653 1.385zm-13.795 14.747l11.872-1.039-1.038-11.86-11.872 1.038 1.038 11.86zm10.173-39.365l-5.293 6.301 6.307 5.287a1.573 1.573 0 0 1-2.022 2.408l-6.307-5.287-5.295 6.302a1.573 1.573 0 0 1-2.41-2.02l5.294-6.302-6.307-5.288a1.57 1.57 0 0 1 .874-2.77 1.57 1.57 0 0 1 1.15.362l6.306 5.288 5.292-6.302c.28-.332.667-.52 1.069-.555a1.57 1.57 0 0 1 1.343 2.576zm-135.723 39.796c-6.323.553-11.917-4.135-12.47-10.453-.552-6.316 4.143-11.906 10.465-12.46 6.323-.552 11.918 4.137 12.47 10.454.553 6.317-4.142 11.906-10.465 12.46zm-.335-3.133c4.632-.405 8.058-4.485 7.654-9.112-.405-4.627-4.488-8.05-9.12-7.644-4.631.405-8.058 4.485-7.653 9.112.405 4.627 4.488 8.05 9.12 7.644zm24.761 26.322c-.233.5-.712.836-1.257.884l-18.871 1.65a1.537 1.537 0 0 1-1.392-.651 1.569 1.569 0 0 1-.145-1.541l7.963-17.655a1.54 1.54 0 0 1 1.266-.902 1.54 1.54 0 0 1 1.404.668l10.908 16.004c.31.456.357 1.044.124 1.543zm-17.755-.76l13.615-1.191-7.87-11.545-5.745 12.736zm32.294-47.946a1.525 1.525 0 0 1-1.387 1.651l-14.91 1.305a1.525 1.525 0 0 1-1.653-1.385l-1.303-14.896a1.525 1.525 0 0 1 1.387-1.65l14.91-1.305a1.525 1.525 0 0 1 1.652 1.385l1.304 14.895zm-16.146-12.127l1.037 11.86 11.873-1.038-1.038-11.861-11.872 1.039zm16.854 37a1.57 1.57 0 0 1-.875 2.77 1.569 1.569 0 0 1-1.148-.362l-6.306-5.286-5.293 6.302a1.57 1.57 0 0 1-1.069.556 1.57 1.57 0 0 1-1.342-2.576l5.293-6.303-6.307-5.287a1.573 1.573 0 0 1 2.022-2.408l6.308 5.287 5.293-6.302a1.573 1.573 0 0 1 2.41 2.02l-5.293 6.303 6.307 5.286zm131.98-41.476c.553 6.316-4.141 11.906-10.465 12.459-6.323.553-11.917-4.136-12.47-10.453-.552-6.317 4.143-11.906 10.465-12.46 6.324-.553 11.917 4.137 12.47 10.454zm-3.136.334c-.405-4.627-4.488-8.05-9.12-7.644-4.631.405-8.058 4.485-7.653 9.112.405 4.627 4.488 8.05 9.12 7.644 4.631-.405 8.057-4.484 7.653-9.112zm26.352-24.741c.5.233.836.711.884 1.256l1.649 18.853c.048.544-.2 1.073-.653 1.39-.451.316-1.039.37-1.542.145l-17.67-7.953a1.537 1.537 0 0 1-.903-1.264 1.538 1.538 0 0 1 .669-1.402l16.021-10.9a1.57 1.57 0 0 1 1.545-.125zm-.764 17.738l-1.19-13.601-11.558 7.864 12.748 5.737zm-47.987-32.254a1.525 1.525 0 0 1 1.652 1.385l1.304 14.896a1.525 1.525 0 0 1-1.387 1.65l-14.91 1.305a1.525 1.525 0 0 1-1.652-1.385l-1.304-14.896a1.525 1.525 0 0 1 1.387-1.65l14.91-1.305zm-12.142 16.132l11.873-1.039-1.038-11.86-11.873 1.039 1.038 11.86zm37.04-16.844a1.574 1.574 0 0 1 2.41 2.02l-5.293 6.301 6.307 5.287c.333.28.52.667.556 1.068a1.574 1.574 0 0 1-2.578 1.342l-6.308-5.287-5.294 6.301a1.574 1.574 0 0 1-2.216.194 1.57 1.57 0 0 1-.194-2.214l5.294-6.303-6.308-5.287a1.57 1.57 0 0 1-.193-2.214 1.574 1.574 0 0 1 2.216-.193l6.307 5.287 5.293-6.302zm-224.463 10.643c-.553-6.317 4.141-11.906 10.465-12.46 6.323-.553 11.917 4.137 12.47 10.453.552 6.317-4.143 11.907-10.465 12.46-6.324.553-11.918-4.137-12.47-10.453zm3.136-.335c.405 4.627 4.488 8.05 9.12 7.644 4.63-.405 8.057-4.484 7.653-9.112-.405-4.627-4.488-8.05-9.12-7.644-4.631.405-8.058 4.485-7.653 9.112zm-26.352 24.741a1.534 1.534 0 0 1-.884-1.255l-1.65-18.853c-.047-.544.201-1.074.653-1.39a1.573 1.573 0 0 1 1.543-.146l17.67 7.953c.51.23.855.713.903 1.264a1.538 1.538 0 0 1-.67 1.403l-16.02 10.9a1.57 1.57 0 0 1-1.545.124zm.764-17.738l1.19 13.602 11.558-7.864-12.748-5.738zm47.987 32.254a1.525 1.525 0 0 1-1.653-1.384l-1.303-14.896a1.525 1.525 0 0 1 1.387-1.651l14.91-1.305a1.525 1.525 0 0 1 1.652 1.385l1.303 14.896a1.525 1.525 0 0 1-1.386 1.651l-14.91 1.304zm12.142-16.132l-11.873 1.039 1.038 11.86 11.872-1.038-1.037-11.86zm-37.04 16.845a1.574 1.574 0 0 1-2.41-2.021l5.293-6.301-6.307-5.287a1.566 1.566 0 0 1-.556-1.067 1.574 1.574 0 0 1 2.578-1.342l6.308 5.287 5.293-6.302a1.574 1.574 0 0 1 2.217-.194 1.57 1.57 0 0 1 .193 2.214l-5.293 6.303 6.307 5.287a1.57 1.57 0 0 1 .194 2.214 1.574 1.574 0 0 1-2.216.194l-6.308-5.287-5.292 6.302zm127.104 36.521c.553 6.317-4.141 11.907-10.465 12.46-6.323.553-11.917-4.136-12.47-10.453-.552-6.317 4.143-11.907 10.466-12.46 6.324-.553 11.917 4.137 12.47 10.453zm-3.147.215c-.404-4.627-4.487-8.05-9.119-7.644-4.631.405-8.058 4.484-7.653 9.111.405 4.627 4.488 8.05 9.12 7.645 4.63-.405 8.057-4.485 7.652-9.112zm30.248 19.79a1.57 1.57 0 0 1-1.542.145l-17.67-7.952a1.538 1.538 0 0 1-.903-1.265 1.537 1.537 0 0 1 .669-1.402l16.02-10.9a1.573 1.573 0 0 1 1.545-.125c.5.233.837.711.884 1.256l1.65 18.852c.047.545-.2 1.074-.653 1.39zm-3.832-17.337l-11.558 7.865 12.748 5.737-1.19-13.602zm-41.657 40.098l-14.91 1.304a1.525 1.525 0 0 1-1.652-1.385l-1.303-14.896a1.525 1.525 0 0 1 1.386-1.65l14.91-1.305a1.525 1.525 0 0 1 1.653 1.385l1.303 14.896a1.525 1.525 0 0 1-1.387 1.65zm-14.759-13.78l1.038 11.861 11.872-1.038-1.037-11.86-11.873 1.038zm39.402 10.158l-6.307-5.288-5.294 6.303a1.574 1.574 0 0 1-2.216.193 1.57 1.57 0 0 1-.193-2.214l5.293-6.301-6.307-5.289a1.57 1.57 0 0 1-.194-2.213 1.574 1.574 0 0 1 2.216-.194l6.307 5.287 5.294-6.302a1.574 1.574 0 0 1 2.41 2.02l-5.293 6.303 6.306 5.286c.333.279.52.666.556 1.067a1.574 1.574 0 0 1-2.578 1.342zm-35.803-89.761c-6.323.553-11.917-4.135-12.47-10.453-.553-6.317 4.142-11.906 10.465-12.46 6.323-.553 11.917 4.137 12.47 10.453.553 6.318-4.142 11.907-10.465 12.46zm-.335-3.133c4.632-.406 8.058-4.485 7.653-9.112-.404-4.627-4.487-8.05-9.119-7.644-4.632.405-8.058 4.484-7.653 9.111.405 4.627 4.487 8.05 9.119 7.645zm24.761 26.322c-.233.5-.712.836-1.257.883l-18.872 1.651a1.537 1.537 0 0 1-1.391-.651 1.569 1.569 0 0 1-.145-1.542l7.963-17.654a1.54 1.54 0 0 1 1.266-.902 1.54 1.54 0 0 1 1.403.668l10.909 16.004c.31.456.357 1.043.124 1.543zm-17.755-.76l13.615-1.191-7.87-11.546-5.745 12.737zm32.293-47.946a1.525 1.525 0 0 1-1.386 1.651l-14.91 1.305a1.525 1.525 0 0 1-1.653-1.386l-1.303-14.895a1.525 1.525 0 0 1 1.386-1.651l14.911-1.304a1.525 1.525 0 0 1 1.652 1.384l1.303 14.896zm-16.146-12.128l1.038 11.861 11.872-1.038-1.037-11.861-11.873 1.038zm16.855 37a1.57 1.57 0 0 1-.875 2.77 1.569 1.569 0 0 1-1.148-.361l-6.306-5.286-5.294 6.302a1.57 1.57 0 0 1-1.068.555 1.57 1.57 0 0 1-1.343-2.575l5.294-6.303-6.308-5.287a1.573 1.573 0 0 1 2.022-2.408l6.31 5.287 5.292-6.302a1.573 1.573 0 0 1 2.41 2.02l-5.293 6.302 6.307 5.287zm-213.375 19.355c-6.322.553-11.916-4.135-12.47-10.453-.552-6.316 4.143-11.906 10.466-12.46 6.323-.552 11.917 4.137 12.47 10.454.553 6.317-4.143 11.906-10.466 12.46zm-.334-3.133c4.631-.405 8.058-4.485 7.653-9.112-.405-4.627-4.488-8.05-9.12-7.644-4.63.405-8.057 4.485-7.652 9.112.404 4.627 4.487 8.05 9.119 7.644zm24.76 26.322c-.232.5-.711.836-1.256.884l-18.872 1.65a1.537 1.537 0 0 1-1.391-.651 1.569 1.569 0 0 1-.145-1.541l7.963-17.655a1.54 1.54 0 0 1 1.266-.902 1.54 1.54 0 0 1 1.403.668l10.908 16.004c.311.456.358 1.044.125 1.543zm-17.755-.76l13.615-1.191-7.87-11.545-5.745 12.736zm32.294-47.946a1.525 1.525 0 0 1-1.386 1.651l-14.91 1.305a1.525 1.525 0 0 1-1.653-1.385l-1.303-14.896a1.525 1.525 0 0 1 1.386-1.65l14.91-1.305a1.525 1.525 0 0 1 1.653 1.385l1.303 14.895zm-16.146-12.127l1.038 11.86 11.872-1.038-1.038-11.861-11.872 1.039zm16.855 37a1.57 1.57 0 0 1-.875 2.77 1.569 1.569 0 0 1-1.149-.362l-6.306-5.286-5.293 6.302a1.57 1.57 0 0 1-1.068.556 1.57 1.57 0 0 1-1.343-2.576l5.293-6.303-6.307-5.287a1.573 1.573 0 0 1 2.022-2.408l6.309 5.287 5.293-6.302a1.573 1.573 0 0 1 2.41 2.02l-5.293 6.303 6.307 5.286zm-147.949 20.657c-6.322.553-11.916-4.135-12.47-10.453-.552-6.316 4.143-11.906 10.466-12.46 6.323-.552 11.917 4.137 12.47 10.454.553 6.317-4.143 11.906-10.466 12.46zm-.334-3.133c4.631-.405 8.058-4.485 7.653-9.112-.405-4.627-4.488-8.05-9.12-7.644-4.63.405-8.057 4.485-7.653 9.112.405 4.627 4.488 8.05 9.12 7.644zm24.76 26.322c-.232.5-.712.836-1.256.883l-18.872 1.651a1.537 1.537 0 0 1-1.391-.651 1.569 1.569 0 0 1-.145-1.541l7.963-17.655a1.54 1.54 0 0 1 1.266-.902 1.54 1.54 0 0 1 1.403.668l10.908 16.004c.311.456.358 1.044.125 1.543zm-17.755-.76l13.615-1.191-7.87-11.545-5.745 12.736zm32.294-47.946a1.525 1.525 0 0 1-1.386 1.651l-14.91 1.305a1.525 1.525 0 0 1-1.653-1.385l-1.303-14.896a1.525 1.525 0 0 1 1.386-1.65l14.91-1.305a1.525 1.525 0 0 1 1.653 1.385l1.303 14.895zm-16.146-12.127l1.038 11.86 11.872-1.038-1.038-11.861-11.872 1.039zm16.855 37a1.57 1.57 0 0 1-.875 2.77 1.569 1.569 0 0 1-1.149-.362l-6.306-5.286-5.293 6.302a1.57 1.57 0 0 1-1.068.556 1.57 1.57 0 0 1-1.343-2.576l5.293-6.303-6.307-5.287a1.573 1.573 0 0 1 2.022-2.408l6.309 5.287 5.293-6.302a1.573 1.573 0 0 1 2.41 2.02l-5.293 6.303 6.307 5.286zm95.058 47.58c6.322-.553 11.916 4.135 12.47 10.453.552 6.317-4.143 11.907-10.466 12.46-6.323.553-11.917-4.137-12.47-10.453-.553-6.318 4.143-11.907 10.466-12.46zm.334 3.134c-4.631.405-8.058 4.484-7.653 9.111.405 4.627 4.488 8.05 9.12 7.645 4.63-.406 8.057-4.485 7.653-9.112-.405-4.627-4.488-8.05-9.12-7.644zm-24.76-26.323c.232-.5.712-.835 1.256-.883l18.872-1.651c.544-.048 1.075.2 1.391.651.317.452.371 1.039.145 1.542l-7.963 17.655a1.54 1.54 0 0 1-1.266.901 1.54 1.54 0 0 1-1.403-.668l-10.908-16.004a1.567 1.567 0 0 1-.125-1.543zm17.755.76l-13.615 1.192 7.87 11.545 5.745-12.737zm-32.294 47.946a1.525 1.525 0 0 1 1.386-1.65l14.91-1.305a1.525 1.525 0 0 1 1.653 1.385l1.303 14.895a1.525 1.525 0 0 1-1.386 1.651l-14.91 1.305a1.525 1.525 0 0 1-1.653-1.385l-1.303-14.896zm16.146 12.128l-1.038-11.861-11.872 1.039 1.038 11.86 11.872-1.038zm-16.855-37a1.57 1.57 0 0 1 .875-2.77c.401-.035.816.082 1.149.361l6.306 5.287 5.293-6.303a1.57 1.57 0 0 1 1.068-.555 1.57 1.57 0 0 1 1.343 2.575l-5.293 6.303 6.307 5.287a1.573 1.573 0 0 1-2.022 2.408l-6.309-5.287-5.293 6.302a1.573 1.573 0 0 1-2.41-2.02l5.293-6.302-6.307-5.287zm-86.396 28.454c-6.323.553-11.917-4.136-12.47-10.453-.552-6.317 4.143-11.907 10.466-12.46 6.323-.553 11.917 4.136 12.47 10.453.552 6.318-4.143 11.906-10.466 12.46zm-.334-3.134c4.631-.405 8.058-4.484 7.653-9.111-.405-4.627-4.488-8.05-9.12-7.645-4.631.405-8.058 4.485-7.653 9.112.405 4.627 4.488 8.05 9.12 7.644zm24.76 26.323c-.233.5-.712.835-1.257.883l-18.871 1.65a1.537 1.537 0 0 1-1.392-.65 1.569 1.569 0 0 1-.145-1.542l7.964-17.655a1.54 1.54 0 0 1 1.266-.902 1.54 1.54 0 0 1 1.403.669l10.908 16.003c.31.457.358 1.044.125 1.544zm-17.755-.76l13.615-1.192-7.87-11.545-5.745 12.736zm32.294-47.946a1.525 1.525 0 0 1-1.387 1.65l-14.91 1.305a1.525 1.525 0 0 1-1.652-1.385l-1.303-14.896a1.525 1.525 0 0 1 1.386-1.65l14.91-1.305a1.525 1.525 0 0 1 1.653 1.385l1.303 14.896zm-16.146-12.128l1.038 11.861 11.872-1.039-1.038-11.86-11.872 1.038zm16.854 37a1.57 1.57 0 0 1-.874 2.77 1.569 1.569 0 0 1-1.149-.361l-6.306-5.287-5.293 6.302a1.57 1.57 0 0 1-1.068.556 1.57 1.57 0 0 1-1.343-2.576l5.293-6.302-6.307-5.287a1.573 1.573 0 0 1 2.022-2.408l6.309 5.287 5.293-6.302a1.573 1.573 0 0 1 2.41 2.02l-5.294 6.302 6.307 5.287zm119.516-40.386c-.553-6.316 4.141-11.906 10.465-12.46 6.323-.552 11.917 4.137 12.47 10.454.552 6.316-4.143 11.906-10.465 12.46-6.324.553-11.918-4.137-12.47-10.454zm3.147-.214c.405 4.627 4.487 8.05 9.119 7.644 4.631-.405 8.058-4.485 7.653-9.112-.405-4.627-4.488-8.05-9.12-7.644-4.63.405-8.057 4.484-7.652 9.112zm-30.248-19.79a1.57 1.57 0 0 1 1.543-.146l17.67 7.953c.51.23.854.714.902 1.265a1.537 1.537 0 0 1-.669 1.402l-16.02 10.9a1.573 1.573 0 0 1-1.545.125 1.535 1.535 0 0 1-.884-1.256l-1.65-18.853c-.047-.544.2-1.074.653-1.39zm3.832 17.336l11.558-7.864-12.748-5.738 1.19 13.602zm41.657-40.097l14.91-1.305a1.525 1.525 0 0 1 1.652 1.385l1.303 14.896a1.525 1.525 0 0 1-1.386 1.65l-14.91 1.305a1.525 1.525 0 0 1-1.653-1.384l-1.303-14.896a1.525 1.525 0 0 1 1.387-1.651zm14.759 13.779l-1.038-11.86-11.872 1.038 1.037 11.86 11.873-1.038zm-39.401-10.157l6.306 5.287 5.294-6.302a1.574 1.574 0 0 1 2.216-.194 1.57 1.57 0 0 1 .194 2.214l-5.294 6.302 6.308 5.288a1.57 1.57 0 0 1 .193 2.214 1.574 1.574 0 0 1-2.216.194l-6.307-5.287-5.294 6.302a1.574 1.574 0 0 1-2.41-2.021l5.293-6.302-6.306-5.286a1.566 1.566 0 0 1-.556-1.067 1.574 1.574 0 0 1 2.578-1.342zm-209.48 13.85c-.552-6.317 4.141-11.907 10.465-12.46 6.323-.553 11.917 4.136 12.47 10.453.553 6.317-4.142 11.906-10.465 12.46-6.324.553-11.917-4.137-12.47-10.454zm3.137-.336c.404 4.627 4.487 8.05 9.119 7.645 4.631-.405 8.058-4.485 7.653-9.112-.405-4.627-4.488-8.05-9.12-7.644-4.63.405-8.057 4.484-7.652 9.111zm-26.352 24.742a1.534 1.534 0 0 1-.884-1.256l-1.65-18.853c-.047-.544.2-1.074.653-1.39a1.573 1.573 0 0 1 1.543-.145l17.67 7.952c.51.23.854.714.902 1.265a1.538 1.538 0 0 1-.669 1.402l-16.02 10.9a1.57 1.57 0 0 1-1.545.125zm.764-17.738l1.19 13.601 11.557-7.864-12.747-5.737zm47.986 32.254a1.525 1.525 0 0 1-1.652-1.385l-1.303-14.896a1.525 1.525 0 0 1 1.386-1.65l14.91-1.305a1.525 1.525 0 0 1 1.653 1.385l1.303 14.896a1.525 1.525 0 0 1-1.387 1.65l-14.91 1.305zm12.142-16.132l-11.872 1.038 1.037 11.861 11.873-1.039-1.038-11.86zm-37.039 16.844a1.574 1.574 0 0 1-2.41-2.02l5.293-6.302-6.308-5.287a1.566 1.566 0 0 1-.556-1.067 1.574 1.574 0 0 1 2.578-1.342l6.308 5.287 5.294-6.302a1.574 1.574 0 0 1 2.216-.193 1.57 1.57 0 0 1 .194 2.213l-5.293 6.304 6.307 5.286a1.57 1.57 0 0 1 .194 2.214 1.574 1.574 0 0 1-2.217.194l-6.307-5.287-5.293 6.302zm113.623 43.222c-.553-6.316 4.141-11.906 10.465-12.46 6.323-.552 11.917 4.137 12.47 10.454.552 6.316-4.143 11.906-10.465 12.46-6.324.552-11.918-4.137-12.47-10.454zm3.136-.335c.405 4.627 4.488 8.05 9.12 7.645 4.63-.406 8.057-4.485 7.653-9.112-.405-4.627-4.488-8.05-9.12-7.645-4.631.406-8.058 4.485-7.653 9.112zm-26.352 24.742a1.534 1.534 0 0 1-.884-1.256l-1.65-18.853c-.047-.544.201-1.074.653-1.39a1.573 1.573 0 0 1 1.543-.145l17.67 7.952c.51.23.855.714.903 1.265a1.538 1.538 0 0 1-.67 1.402l-16.02 10.9a1.57 1.57 0 0 1-1.545.125zm.764-17.739l1.19 13.602 11.558-7.864-12.748-5.738zm47.987 32.255a1.525 1.525 0 0 1-1.653-1.385l-1.303-14.896a1.525 1.525 0 0 1 1.387-1.65l14.91-1.305a1.525 1.525 0 0 1 1.652 1.385l1.303 14.896a1.525 1.525 0 0 1-1.386 1.65l-14.91 1.305zm12.142-16.132l-11.873 1.038 1.038 11.86 11.872-1.038-1.037-11.86zm-37.04 16.844a1.574 1.574 0 0 1-2.41-2.021l5.293-6.3-6.307-5.288a1.566 1.566 0 0 1-.556-1.067 1.574 1.574 0 0 1 2.578-1.342l6.308 5.287 5.293-6.302a1.574 1.574 0 0 1 2.217-.194 1.57 1.57 0 0 1 .193 2.214l-5.293 6.303 6.307 5.287a1.57 1.57 0 0 1 .194 2.214 1.574 1.574 0 0 1-2.216.194l-6.308-5.287-5.292 6.302zm-13.607-101.74c-6.323.552-11.917-4.136-12.47-10.454-.552-6.316 4.143-11.906 10.465-12.46 6.323-.552 11.918 4.137 12.47 10.454.553 6.317-4.142 11.906-10.465 12.46zm-.335-3.134c4.632-.405 8.058-4.485 7.654-9.112-.405-4.627-4.488-8.05-9.12-7.644-4.631.405-8.058 4.485-7.653 9.112.405 4.627 4.488 8.05 9.12 7.644zm24.761 26.322c-.233.5-.712.836-1.257.884l-18.871 1.65a1.537 1.537 0 0 1-1.392-.65 1.569 1.569 0 0 1-.145-1.542l7.964-17.655a1.54 1.54 0 0 1 1.265-.902 1.54 1.54 0 0 1 1.404.668l10.908 16.004c.31.456.358 1.044.124 1.543zm-17.755-.76l13.615-1.191-7.87-11.545-5.745 12.736zm32.294-47.946a1.525 1.525 0 0 1-1.387 1.651l-14.91 1.305a1.525 1.525 0 0 1-1.652-1.385l-1.304-14.896a1.525 1.525 0 0 1 1.387-1.65l14.91-1.305a1.525 1.525 0 0 1 1.652 1.385l1.304 14.895zm-16.146-12.127l1.038 11.86 11.872-1.038-1.038-11.861-11.872 1.039zm16.854 37a1.57 1.57 0 0 1-.875 2.77 1.569 1.569 0 0 1-1.148-.362l-6.306-5.286-5.293 6.302a1.57 1.57 0 0 1-1.069.556 1.57 1.57 0 0 1-1.342-2.576l5.293-6.302-6.307-5.288a1.573 1.573 0 0 1 2.022-2.408l6.308 5.287 5.294-6.302a1.573 1.573 0 0 1 2.41 2.02l-5.294 6.303 6.307 5.286z"/>
    </g>
</svg>
